{"glyphs":{"0":{"ha":1206,"x_min":0,"x_max":0,"o":"m 603 1 b 1122 521 889 1 1122 235 b 603 1040 1122 807 889 1040 b 83 521 317 1040 83 807 b 603 1 83 235 317 1 z m 603 975 b 906 858 718 975 825 931 l 265 217 b 149 521 193 297 149 404 b 603 975 149 771 353 975 z m 603 67 b 313 172 492 67 392 106 l 951 810 b 1057 521 1017 732 1057 631 b 603 67 1057 271 853 67 z "},"1":{"ha":719,"x_min":0,"x_max":0,"o":"m 565 588 b 569 526 568 568 569 547 l 571 33 b 604 1 571 15 586 1 b 636 33 622 1 636 15 l 635 526 b 632 588 635 547 633 568 l 619 653 b 121 1040 563 875 361 1040 l 117 1040 b 83 1008 99 1040 83 1025 b 117 975 83 990 99 975 l 121 975 b 551 653 325 975 497 839 z "},"2":{"ha":985,"x_min":0,"x_max":0,"o":"m 901 32 b 869 65 901 50 888 65 l 149 65 l 149 485 l 622 485 b 754 519 622 485 700 488 b 819 569 778 533 800 549 b 899 763 871 621 899 690 b 622 1040 899 915 775 1040 l 117 1040 b 83 1008 99 1040 83 1028 b 117 974 83 985 99 974 l 622 974 b 833 763 731 974 833 883 b 622 551 833 646 736 558 l 83 551 l 83 32 b 106 1 83 17 93 6 b 108 0 107 1 108 0 l 869 0 b 901 32 888 0 901 14 z "},"3":{"ha":982,"x_min":0,"x_max":0,"o":"m 754 521 b 819 571 778 533 800 551 b 899 764 871 622 899 692 b 622 1040 899 917 775 1040 l 117 1040 b 83 1008 99 1040 83 1026 b 117 975 83 990 99 975 l 622 975 b 833 764 739 975 833 881 b 622 554 833 644 729 554 l 228 554 b 194 521 210 554 194 539 b 228 489 194 503 210 489 l 622 489 b 833 278 736 482 833 394 b 622 67 833 157 731 67 l 117 67 b 83 33 99 67 83 51 b 117 1 83 17 99 1 l 622 1 b 899 278 775 1 899 125 b 819 471 899 350 871 419 b 754 521 800 492 778 508 z "},"4":{"ha":1010,"x_min":0,"x_max":0,"o":"m 629 828 b 597 796 611 828 597 814 l 597 553 b 149 1001 350 553 149 754 l 149 1010 b 115 1042 149 1028 133 1042 b 83 1010 97 1042 83 1028 l 83 1001 b 597 488 83 718 314 488 l 597 32 b 629 -1 597 14 611 -1 b 663 32 647 -1 663 14 l 663 488 l 893 488 b 926 519 911 488 926 503 b 893 553 926 538 911 553 l 663 553 l 663 796 b 629 828 663 814 647 828 z "},"5":{"ha":985,"x_min":0,"x_max":0,"o":"m 901 1008 b 869 1040 901 1026 888 1040 l 113 1040 b 83 1008 96 1038 83 1025 l 83 489 l 622 489 b 833 278 736 482 833 394 b 622 67 833 157 731 67 l 117 67 b 83 32 99 67 83 56 b 117 0 83 13 99 0 l 622 0 b 899 278 775 0 899 125 b 819 471 899 350 871 419 b 754 521 800 492 778 507 b 622 556 700 553 622 556 l 149 556 l 149 975 l 869 975 b 901 1008 888 975 901 990 z "},"6":{"ha":982,"x_min":0,"x_max":0,"o":"m 754 521 b 622 554 700 553 622 554 l 149 554 l 149 1007 b 117 1040 149 1025 135 1040 b 83 1007 99 1040 83 1025 l 83 32 b 117 1 83 15 99 1 l 622 1 b 899 278 775 1 899 125 b 819 471 899 350 871 419 b 754 521 800 492 778 507 z m 622 489 b 833 278 736 482 833 394 b 622 67 833 157 731 67 l 149 67 l 149 489 z "},"7":{"ha":847,"x_min":0,"x_max":0,"o":"m 565 588 b 569 526 568 568 569 547 l 571 415 l 240 415 b 208 382 222 415 208 400 b 240 350 208 364 222 350 l 571 350 l 571 33 b 604 1 571 15 586 1 b 636 33 622 1 636 15 l 636 350 l 731 350 b 764 382 749 350 764 364 b 731 415 764 400 749 415 l 636 415 l 635 526 b 632 588 635 547 633 568 l 619 653 b 121 1040 563 875 361 1040 l 117 1040 b 83 1008 99 1040 83 1025 b 117 975 83 990 99 975 l 121 975 b 551 653 325 975 497 839 z "},"8":{"ha":985,"x_min":0,"x_max":0,"o":"m 625 1040 l 360 1040 b 83 764 207 1040 83 917 b 163 571 83 692 111 622 b 228 521 182 551 204 533 b 163 471 204 508 182 492 b 83 278 111 419 83 350 b 360 1 83 125 207 1 l 625 1 b 901 278 778 1 901 125 b 822 471 901 350 874 419 b 757 521 803 492 781 508 b 822 571 781 533 803 551 b 901 764 874 622 901 692 b 625 1040 901 917 778 1040 z m 360 554 b 149 764 253 554 149 644 b 360 975 149 881 243 975 l 625 975 b 836 764 742 975 836 881 b 625 554 836 644 732 554 z m 360 67 b 149 278 251 67 149 157 b 360 489 149 394 246 482 l 625 489 b 836 278 739 482 836 394 b 625 67 836 157 733 67 z "},"9":{"ha":982,"x_min":0,"x_max":0,"o":"m 228 521 b 360 488 282 489 360 488 l 833 488 l 833 35 b 865 1 833 17 847 1 b 899 35 883 1 899 17 l 899 1010 b 865 1040 899 1026 883 1040 l 360 1040 b 83 764 207 1040 83 917 b 163 571 83 692 111 622 b 228 521 182 550 204 535 z m 360 553 b 149 764 246 560 149 647 b 360 975 149 885 251 975 l 833 975 l 833 553 z "},"E":{"ha":1038,"x_min":0,"x_max":0,"o":"m 921 68 b 603 67 921 68 604 67 b 150 486 364 68 168 253 l 740 486 b 774 519 758 486 774 501 b 740 553 774 538 758 553 l 150 553 b 603 975 167 789 364 975 l 921 975 b 954 1008 939 975 954 990 b 921 1042 954 1026 939 1042 l 603 1042 b 83 521 317 1042 83 808 b 603 1 83 235 317 1 l 921 1 b 954 35 939 1 954 17 b 921 68 954 53 939 68 z "},"R":{"ha":1011,"x_min":0,"x_max":0,"o":"m 894 1040 l 599 1040 b 85 526 315 1040 85 810 l 83 33 b 115 1 83 15 97 1 b 149 33 133 1 149 15 l 150 526 b 599 975 150 774 351 975 l 894 975 b 928 1008 913 975 928 990 b 894 1040 928 1025 913 1040 z "},"N":{"ha":1204,"x_min":0,"x_max":0,"o":"m 1121 522 b 603 1040 1121 807 888 1040 b 85 522 317 1040 85 807 l 83 35 b 117 1 83 17 97 1 b 149 35 135 1 149 17 l 150 522 b 603 974 150 771 353 974 b 1054 522 851 974 1054 771 l 1056 33 b 1088 1 1056 15 1069 1 b 1121 33 1106 1 1121 15 z "},"D":{"ha":1068,"x_min":0,"x_max":0,"o":"m 467 1039 l 117 1039 b 83 1007 99 1039 83 1025 b 117 974 83 989 99 974 l 467 974 b 919 521 717 974 919 769 b 467 67 919 271 717 68 b 117 68 465 67 117 68 b 83 35 99 68 83 53 b 117 1 83 17 99 1 l 467 1 b 985 521 753 1 985 235 b 467 1039 985 806 753 1039 z "},"O":{"ha":1206,"x_min":0,"x_max":0,"o":"m 603 1 b 1122 521 889 1 1122 235 b 603 1040 1122 807 889 1040 b 83 521 317 1040 83 807 b 603 1 83 235 317 1 z m 603 975 b 1057 521 853 975 1057 771 b 603 67 1057 271 853 67 b 149 521 353 67 149 271 b 603 975 149 771 353 975 z "},"A":{"ha":1204,"x_min":0,"x_max":0,"o":"m 1121 522 b 603 1040 1121 807 888 1040 b 85 522 317 1040 85 807 l 83 35 b 117 1 83 17 97 1 b 149 35 135 1 149 17 l 150 488 l 1054 488 l 1056 33 b 1088 1 1056 15 1069 1 b 1121 33 1106 1 1121 15 z m 151 553 b 603 974 167 788 363 974 b 1053 553 840 974 1036 788 z "},"I":{"ha":232,"x_min":0,"x_max":0,"o":"m 117 1 b 149 33 135 1 149 15 l 149 1007 b 117 1040 149 1025 135 1040 b 83 1007 99 1040 83 1025 l 83 33 b 117 1 83 15 99 1 z "},"M":{"ha":1208,"x_min":0,"x_max":0,"o":"m 83 33 b 115 0 83 15 97 0 b 149 33 133 0 149 15 l 149 764 b 360 975 149 881 243 975 b 571 768 475 975 569 882 l 571 310 b 604 278 571 292 586 278 b 636 310 622 278 636 292 b 638 768 636 310 636 767 b 849 975 639 882 733 975 b 1060 767 964 975 1058 882 l 1060 33 b 1092 0 1060 15 1074 0 b 1125 33 1110 0 1125 15 l 1125 764 b 849 1040 1125 917 1001 1040 b 654 961 775 1040 706 1013 b 604 894 633 942 617 919 b 554 961 592 919 574 942 b 360 1040 501 1013 433 1040 b 83 764 207 1040 83 917 z "},"W":{"ha":1200,"x_min":0,"x_max":0,"o":"m 1117 1007 b 1083 1040 1117 1025 1101 1040 b 1051 1007 1065 1040 1051 1025 l 1051 517 b 635 68 1051 281 867 85 l 635 519 b 601 551 635 538 619 551 b 569 519 583 551 569 538 l 569 68 b 149 518 335 83 149 279 l 149 1007 b 117 1040 149 1025 135 1040 b 83 1007 99 1040 83 1025 l 83 518 b 600 1 83 233 315 1 b 1117 517 885 1 1117 232 z "},"C":{"ha":1068,"x_min":0,"x_max":0,"o":"m 601 1 l 951 1 b 985 33 969 1 985 15 b 951 67 985 51 969 67 l 601 67 b 149 519 351 67 149 271 b 601 974 149 769 351 972 b 951 972 603 974 951 972 b 985 1006 969 972 985 988 b 951 1039 985 1024 969 1039 l 601 1039 b 83 519 315 1039 83 806 b 601 1 83 235 315 1 z "},"L":{"ha":1011,"x_min":0,"x_max":0,"o":"m 894 1 b 928 33 913 1 928 17 b 894 67 928 51 913 67 l 599 67 b 150 515 351 67 150 268 l 149 1008 b 115 1040 149 1026 133 1040 b 83 1008 97 1040 83 1026 l 85 515 b 599 1 85 232 315 1 z "},"J":{"ha":1011,"x_min":0,"x_max":0,"o":"m 117 1 l 413 1 b 926 515 696 1 926 232 l 928 1008 b 896 1040 928 1026 914 1040 b 863 1008 878 1040 863 1026 l 861 515 b 413 67 861 268 660 67 l 117 67 b 83 33 99 67 83 51 b 117 1 83 17 99 1 z "},"U":{"ha":1204,"x_min":0,"x_max":0,"o":"m 83 518 b 601 0 83 233 317 0 b 1119 518 888 0 1119 233 l 1121 1006 b 1088 1039 1121 1024 1107 1039 b 1056 1006 1069 1039 1056 1024 l 1054 518 b 601 67 1054 269 851 67 b 150 518 353 67 150 269 l 149 1007 b 117 1039 149 1025 135 1039 b 83 1007 99 1039 83 1025 z "},"S":{"ha":983,"x_min":0,"x_max":0,"o":"m 361 486 l 622 486 b 833 275 736 479 833 392 b 622 64 833 154 731 64 l 117 64 b 83 31 99 64 83 49 b 117 -1 83 14 99 -1 l 622 -1 b 899 275 775 -1 899 122 b 819 468 899 347 871 417 b 622 551 800 489 736 549 l 361 551 b 150 763 247 558 150 646 b 361 974 150 883 253 974 l 867 974 b 900 1007 885 974 900 989 b 867 1039 900 1024 885 1039 l 361 1039 b 85 763 208 1039 85 915 b 164 569 85 690 113 621 b 361 486 183 549 247 489 z "},"P":{"ha":982,"x_min":0,"x_max":0,"o":"m 119 1 b 151 33 138 1 151 15 l 151 485 l 622 485 b 899 761 775 485 899 608 b 819 954 899 833 871 903 b 622 1038 800 975 736 1035 l 117 1038 b 83 1004 99 1038 83 1022 b 117 972 83 986 99 972 l 622 972 b 833 761 736 965 833 878 b 622 550 833 640 731 550 l 117 550 b 83 517 99 550 83 535 b 86 33 83 513 85 508 b 119 1 86 15 101 1 z "}," ":{"ha":901,"x_min":0,"x_max":0,"o":""},"H":{"ha":1206,"x_min":0,"x_max":0,"o":"m 1122 33 l 1122 1007 b 1090 1040 1122 1025 1108 1040 b 1057 1007 1072 1040 1057 1025 l 1057 283 b 603 554 968 444 797 554 b 149 286 407 554 238 444 l 149 1007 b 117 1040 149 1025 135 1040 b 83 1007 99 1040 83 1025 l 83 33 b 117 1 83 15 99 1 b 149 33 135 1 149 15 l 149 36 b 603 488 149 285 353 488 b 1057 36 851 488 1057 285 l 1057 33 b 1090 1 1057 15 1072 1 b 1122 33 1108 1 1122 15 z "},"h":{"ha":1206,"x_min":0,"x_max":0,"o":"m 1090 1 b 1122 33 1108 1 1122 15 b 603 554 1122 318 888 554 b 149 285 407 554 236 444 l 149 1007 b 117 1040 149 1025 135 1040 b 83 1007 99 1040 83 1025 l 83 33 b 117 0 83 15 97 0 b 149 33 135 0 149 15 l 149 36 b 603 488 149 285 353 488 b 1057 33 851 488 1057 282 b 1090 1 1057 15 1072 1 z "},"F":{"ha":1038,"x_min":0,"x_max":0,"o":"m 117 1 b 149 33 135 1 149 15 l 149 486 l 740 486 b 774 519 758 486 774 501 b 740 553 774 538 758 553 l 150 553 b 603 975 167 789 364 975 l 921 975 b 954 1008 939 975 954 990 b 921 1042 954 1026 939 1042 l 603 1042 b 83 521 317 1042 83 808 l 83 33 b 117 1 83 15 99 1 z "},"Q":{"ha":1206,"x_min":0,"x_max":0,"o":"m 611 1 b 1122 521 892 4 1122 236 b 603 1040 1122 807 889 1040 b 83 521 317 1040 83 807 b 594 1 83 236 311 4 z m 569 68 b 149 521 335 85 149 282 b 603 975 149 771 353 975 b 1057 521 853 975 1057 771 b 635 68 1057 282 869 85 l 635 517 b 603 550 635 535 621 550 b 569 517 585 550 569 535 z "},"r":{"ha":982,"x_min":0,"x_max":0,"o":"m 119 1 b 151 33 138 1 151 15 l 151 485 l 622 485 b 899 761 775 485 899 608 b 819 954 899 833 871 903 b 622 1038 800 975 736 1035 l 117 1038 b 83 1004 99 1038 83 1022 b 117 972 83 986 99 972 l 622 972 b 833 761 736 965 833 878 b 622 550 833 640 731 550 l 117 550 b 83 517 99 550 83 535 b 86 33 83 513 85 508 b 119 1 86 15 101 1 z m 703 1 b 735 33 721 1 735 15 l 735 378 b 703 411 735 396 721 411 b 669 378 685 411 669 396 l 669 33 b 703 1 669 15 685 1 z "},"T":{"ha":1204,"x_min":0,"x_max":0,"o":"m 1121 522 b 597 1040 1121 803 890 1036 b 85 522 314 1038 85 806 l 83 522 b 117 489 83 504 97 489 b 149 522 135 489 149 504 l 150 522 b 569 972 150 760 335 954 l 569 33 b 603 1 569 15 585 1 b 635 33 621 1 635 15 l 635 972 b 1054 522 868 956 1054 760 l 1056 521 b 1088 489 1056 503 1069 489 b 1121 521 1106 489 1121 503 z "},"X":{"ha":1206,"x_min":0,"x_max":0,"o":"m 1121 35 b 785 519 1121 256 981 444 b 1121 1004 981 593 1121 783 b 1089 1039 1122 1024 1108 1039 b 1056 1004 1071 1039 1057 1024 b 603 553 1056 756 853 553 b 151 1004 354 553 151 756 b 118 1039 150 1025 136 1039 b 85 1004 100 1039 85 1025 b 419 519 85 783 224 593 b 85 35 224 444 85 256 b 117 0 83 15 97 0 b 150 35 135 0 149 15 b 603 486 150 283 353 486 b 1054 35 851 486 1054 283 b 1088 0 1056 14 1069 0 b 1121 35 1106 0 1121 14 z "},"Y":{"ha":1204,"x_min":0,"x_max":0,"o":"m 1119 1004 b 1088 1039 1121 1024 1107 1039 b 1054 1004 1069 1039 1056 1024 b 601 553 1054 756 851 553 b 150 1004 353 553 150 756 b 117 1039 149 1025 135 1039 b 83 1004 99 1039 83 1025 b 568 488 83 731 299 504 l 568 33 b 601 1 568 15 583 1 b 633 33 619 1 633 15 l 633 486 b 1119 1004 904 503 1119 729 z "},"Z":{"ha":983,"x_min":0,"x_max":0,"o":"m 361 549 b 164 465 247 546 183 486 b 85 272 113 414 85 344 b 361 -4 85 119 208 -4 l 867 -4 b 900 28 885 -4 900 11 b 867 61 900 46 885 61 l 361 61 b 150 272 253 61 150 151 b 360 483 150 388 246 475 l 622 483 b 819 567 736 486 800 546 b 899 760 871 618 899 688 b 622 1036 899 913 775 1036 l 117 1036 b 83 1004 99 1036 83 1021 b 117 971 83 986 99 971 l 622 971 b 833 760 731 971 833 881 b 622 549 833 643 736 556 z "},"j":{"ha":1011,"x_min":0,"x_max":0,"o":"m 117 -278 l 413 -278 b 926 236 696 -278 926 -47 l 928 1008 b 896 1040 928 1026 914 1040 b 863 1008 878 1040 863 1026 l 861 236 b 413 -212 861 -11 660 -212 l 117 -212 b 83 -246 99 -212 83 -228 b 117 -278 83 -262 99 -278 z "},"i":{"ha":232,"x_min":0,"x_max":0,"o":"m 117 694 b 149 726 135 694 149 708 l 149 1007 b 117 1040 149 1025 135 1040 b 83 1007 99 1040 83 1025 l 83 726 b 117 694 83 708 99 694 z m 117 1 b 149 33 135 1 149 15 l 149 517 b 117 550 149 535 135 550 b 83 517 99 550 83 535 l 83 33 b 117 1 83 15 99 1 z "},";":{"ha":232,"x_min":0,"x_max":0,"o":"m 117 -278 b 149 -246 135 -278 149 -264 l 149 35 b 117 68 149 53 135 68 b 83 35 99 68 83 53 l 83 -246 b 117 -278 83 -264 99 -278 z m 117 417 b 149 449 135 417 149 431 l 149 522 b 117 556 149 540 135 556 b 83 522 99 556 83 540 l 83 449 b 117 417 83 431 99 417 z "},":":{"ha":232,"x_min":0,"x_max":0,"o":"m 117 417 b 149 449 135 417 149 431 l 149 522 b 117 556 149 540 135 556 b 83 522 99 556 83 540 l 83 449 b 117 417 83 431 99 417 z m 117 -71 b 149 -39 135 -71 149 -57 l 149 35 b 117 68 149 53 135 68 b 83 35 99 68 83 53 l 83 -39 b 117 -71 83 -57 99 -71 z "},",":{"ha":232,"x_min":0,"x_max":0,"o":"m 117 -278 b 149 -246 135 -278 149 -264 l 149 35 b 117 68 149 53 135 68 b 83 35 99 68 83 53 l 83 -246 b 117 -278 83 -264 99 -278 z "},".":{"ha":232,"x_min":0,"x_max":0,"o":"m 117 -71 b 149 -39 135 -71 149 -57 l 149 35 b 117 68 149 53 135 68 b 83 35 99 68 83 53 l 83 -39 b 117 -71 83 -57 99 -71 z "},"€":{"ha":1140,"x_min":0,"x_max":0,"o":"m 819 422 b 788 454 819 440 806 454 l 256 454 b 256 585 253 564 254 574 b 788 590 603 585 736 590 b 819 618 806 590 819 600 b 788 650 819 636 806 650 l 271 650 b 706 975 326 838 500 975 l 1024 975 b 1057 1008 1042 975 1057 990 b 1024 1042 1057 1026 1042 1042 l 706 1042 b 201 650 464 1042 260 875 l 117 650 b 83 618 99 650 83 636 b 117 585 83 600 99 585 l 190 585 b 190 454 185 542 185 496 l 117 454 b 83 422 99 454 83 440 b 117 389 83 404 99 389 l 203 389 b 706 1 263 167 465 1 l 1024 1 b 1057 35 1042 1 1057 17 b 1024 68 1057 53 1042 68 b 706 67 1024 68 707 67 b 271 389 500 68 328 203 l 788 389 b 819 422 806 389 819 404 z "},"$":{"ha":983,"x_min":0,"x_max":0,"o":"m 526 1078 b 494 1111 526 1096 513 1111 b 461 1078 476 1111 461 1096 l 461 1039 l 361 1039 b 85 763 208 1039 85 915 b 164 569 85 690 113 621 b 361 486 183 549 247 489 l 461 486 l 461 64 l 117 64 b 83 31 99 64 83 49 b 117 -1 83 14 99 -1 l 461 -1 l 461 -107 b 494 -139 461 -125 476 -139 b 526 -107 513 -139 526 -125 l 526 -1 l 622 -1 b 899 275 775 -1 899 122 b 819 468 899 347 871 417 b 622 551 800 489 736 549 l 526 551 l 526 974 l 867 974 b 900 1007 885 974 900 989 b 867 1039 900 1024 885 1039 l 526 1039 z m 361 551 b 150 763 247 558 150 646 b 361 974 150 883 253 974 l 461 974 l 461 551 z m 624 486 b 833 275 736 478 833 390 b 622 64 833 154 731 64 l 526 64 l 526 486 z "},"¥":{"ha":1204,"x_min":0,"x_max":0,"o":"m 1119 1004 b 1088 1039 1121 1024 1107 1039 b 1054 1004 1069 1039 1056 1024 b 601 553 1054 756 851 553 b 150 1004 353 553 150 756 b 117 1039 149 1025 135 1039 b 83 1004 99 1039 83 1025 b 568 488 83 731 299 504 l 568 386 l 261 386 b 228 354 243 386 228 372 b 261 321 228 336 243 321 l 568 321 l 568 190 l 261 190 b 228 158 243 190 228 176 b 261 125 228 140 243 125 l 568 125 l 568 33 b 601 1 568 15 583 1 b 633 33 619 1 633 15 l 633 125 l 932 125 b 964 158 950 125 964 140 b 932 190 964 176 950 190 l 633 190 l 633 321 l 932 321 b 964 354 950 321 964 336 b 932 386 964 372 950 386 l 633 386 l 633 486 b 1119 1004 904 503 1119 729 z "},"₤":{"ha":1139,"x_min":0,"x_max":0,"o":"m 819 422 b 788 454 819 440 806 454 l 282 454 b 278 515 279 474 278 494 l 276 585 l 788 585 b 819 618 806 585 819 600 b 788 650 819 636 806 650 l 276 650 l 276 1008 b 243 1040 276 1026 261 1040 b 211 1008 225 1040 211 1026 l 211 650 l 117 650 b 83 618 99 650 83 636 b 117 585 83 600 99 585 l 211 585 l 213 515 b 215 454 213 494 214 474 l 117 454 b 83 422 99 454 83 440 b 117 389 83 404 99 389 l 228 389 b 726 1 285 167 486 1 l 1022 1 b 1056 33 1040 1 1056 17 b 1022 67 1056 51 1040 67 l 726 67 b 296 389 522 67 350 203 l 788 389 b 819 422 806 389 819 404 z "},"¢":{"ha":1068,"x_min":0,"x_max":0,"o":"m 951 1 b 985 33 969 1 985 15 b 951 67 985 51 969 67 l 633 67 l 633 974 b 951 972 699 974 951 972 b 985 1006 969 972 985 988 b 951 1039 985 1024 969 1039 l 633 1039 l 633 1078 b 601 1111 633 1096 619 1111 b 568 1078 583 1111 568 1096 l 568 1038 b 83 519 297 1019 83 794 b 568 3 83 246 297 19 l 568 -107 b 601 -139 568 -125 583 -139 b 633 -107 619 -139 633 -125 l 633 1 z m 568 68 b 149 519 333 85 149 282 b 568 972 149 758 333 953 z "},"w":{"ha":1208,"x_min":0,"x_max":0,"o":"m 1125 1006 b 1093 1039 1125 1024 1111 1039 b 1060 1006 1075 1039 1060 1024 l 1060 275 b 849 64 1060 158 965 64 b 638 271 733 64 639 157 l 638 729 b 604 761 638 747 622 761 b 572 729 586 761 572 747 b 571 271 572 729 572 272 b 360 64 569 157 475 64 b 149 272 244 64 150 157 l 149 1006 b 117 1039 149 1024 135 1039 b 83 1006 99 1039 83 1024 l 83 275 b 360 -1 83 122 207 -1 b 554 78 433 -1 503 26 b 604 144 575 97 592 119 b 654 78 617 119 635 97 b 849 -1 707 26 775 -1 b 1125 275 1001 -1 1125 122 z "},"m":{"ha":1200,"x_min":0,"x_max":0,"o":"m 83 35 b 117 1 83 17 99 1 b 149 35 135 1 149 17 l 149 525 b 565 974 149 761 333 957 l 565 522 b 599 490 565 504 581 490 b 631 522 617 490 631 504 l 631 974 b 1051 524 865 958 1051 763 l 1051 35 b 1083 1 1051 17 1065 1 b 1117 35 1101 1 1117 17 l 1117 524 b 600 1040 1117 808 885 1040 b 83 525 315 1040 83 810 z "},"e":{"ha":1038,"x_min":0,"x_max":0,"o":"m 954 521 b 922 553 954 539 940 553 l 117 553 b 83 521 99 553 83 539 b 117 488 83 503 99 488 l 922 488 b 954 521 940 488 954 503 z m 954 1010 b 922 1042 954 1028 940 1042 l 117 1042 b 83 1010 99 1042 83 1028 b 117 976 83 992 99 976 l 922 976 b 954 1010 940 976 954 992 z m 954 33 b 922 65 954 51 940 65 l 117 65 b 83 33 99 65 83 51 b 117 0 83 15 99 0 l 922 0 b 954 33 940 0 954 15 z "},"¨":{"ha":621,"x_min":0,"x_max":0,"o":"m 117 832 b 149 864 135 832 149 846 l 149 938 b 117 971 149 956 135 971 b 83 938 99 971 83 956 l 83 864 b 117 832 83 846 99 832 z m 506 832 b 538 864 524 832 538 846 l 538 938 b 506 971 538 956 524 971 b 472 938 488 971 472 956 l 472 864 b 506 832 472 846 488 832 z "},"Ë":{"ha":1038,"x_min":0,"x_max":0,"o":"m 921 68 b 603 67 921 68 604 67 b 150 486 364 68 168 253 l 740 486 b 774 519 758 486 774 501 b 740 553 774 538 758 553 l 150 553 b 603 975 167 789 364 975 l 921 975 b 954 1008 939 975 954 990 b 921 1042 954 1026 939 1042 l 603 1042 b 83 521 317 1042 83 808 b 603 1 83 235 317 1 l 921 1 b 954 35 939 1 954 17 b 921 68 954 53 939 68 z m 354 1110 b 386 1142 372 1110 386 1124 l 386 1215 b 354 1249 386 1233 372 1249 b 321 1215 336 1249 321 1233 l 321 1142 b 354 1110 321 1124 336 1110 z m 743 1110 b 775 1142 761 1110 775 1124 l 775 1215 b 743 1249 775 1233 761 1249 b 710 1215 725 1249 710 1233 l 710 1142 b 743 1110 710 1124 725 1110 z "},"q":{"ha":1206,"x_min":0,"x_max":0,"o":"m 1122 521 b 603 1040 1122 807 889 1040 b 83 521 317 1040 83 807 b 569 3 83 246 299 19 l 569 -246 b 603 -278 569 -264 585 -278 b 635 -246 621 -278 635 -264 l 635 1 b 1122 521 906 18 1122 244 z m 569 68 b 149 521 335 85 149 282 b 603 975 149 771 353 975 b 1057 521 853 975 1057 771 b 635 68 1057 282 869 85 l 635 517 b 603 550 635 535 621 550 b 569 517 585 550 569 535 z "},"?":{"ha":983,"x_min":0,"x_max":0,"o":"m 622 483 b 819 567 736 486 800 546 b 899 760 871 618 899 688 b 622 1036 899 913 775 1036 l 117 1036 b 83 1004 99 1036 83 1021 b 117 971 83 986 99 971 l 622 971 b 833 760 731 971 833 881 b 622 549 833 643 736 556 l 360 549 b 164 465 246 544 183 486 b 85 272 113 414 85 344 b 361 -4 85 119 208 -4 l 867 -4 b 900 28 885 -4 900 11 b 867 61 900 46 885 61 l 361 61 b 150 272 253 61 150 151 b 360 483 150 388 246 475 z m 607 138 b 574 169 589 138 574 151 l 574 243 b 607 276 574 261 589 276 b 639 243 625 276 639 261 l 639 169 b 607 138 639 151 625 138 z "},"!":{"ha":232,"x_min":0,"x_max":0,"o":"m 117 -71 b 149 -39 135 -71 149 -57 l 149 35 b 117 68 149 53 135 68 b 83 35 99 68 83 53 l 83 -39 b 117 -71 83 -57 99 -71 z m 117 278 b 149 310 135 278 149 292 l 149 1103 b 117 1136 149 1121 135 1136 b 83 1103 99 1136 83 1121 l 83 310 b 117 278 83 292 99 278 z "},"¶":{"ha":982,"x_min":0,"x_max":0,"o":"m 863 -140 b 896 -108 881 -140 896 -126 b 899 517 897 367 899 513 b 865 550 899 535 883 550 l 360 550 b 149 761 251 550 149 640 b 360 972 149 878 246 965 l 865 972 b 899 1004 883 972 899 986 b 865 1038 899 1022 883 1038 l 360 1038 b 163 954 246 1035 182 975 b 83 761 111 903 83 833 b 360 485 83 608 207 485 l 831 485 l 831 -108 b 863 -140 831 -126 844 -140 z m 682 -140 b 715 -108 700 -140 715 -126 l 715 378 b 682 411 715 396 700 411 b 650 378 664 411 650 396 l 650 -108 b 682 -140 650 -126 664 -140 z "},"Æ":{"ha":2008,"x_min":0,"x_max":0,"o":"m 1892 68 b 1574 67 1892 68 1575 67 b 1121 486 1335 68 1139 253 l 1711 486 b 1744 519 1729 486 1744 501 b 1711 553 1744 538 1729 553 l 1121 553 b 1574 975 1138 789 1335 975 l 1892 975 b 1925 1008 1910 975 1925 990 b 1892 1042 1925 1026 1910 1042 l 1574 1042 b 1088 704 1351 1042 1161 901 b 603 1040 1013 900 824 1040 b 85 522 317 1040 85 807 l 83 35 b 117 1 83 17 97 1 b 149 35 135 1 149 17 l 150 488 l 1054 488 l 1056 33 b 1088 1 1056 15 1069 1 b 1121 33 1106 1 1121 15 l 1121 267 b 1574 1 1210 108 1379 1 l 1892 1 b 1925 35 1910 1 1925 17 b 1892 68 1925 53 1910 68 z m 151 553 b 603 974 167 788 363 974 b 1053 553 840 974 1036 788 z "},"´":{"ha":346,"x_min":0,"x_max":0,"o":"m 89 847 b 132 836 97 832 115 829 l 243 900 b 258 946 261 910 267 929 b 211 957 249 961 229 967 l 100 893 b 89 847 83 883 79 864 z "},"Á":{"ha":1204,"x_min":0,"x_max":0,"o":"m 1121 522 b 603 1040 1121 807 888 1040 b 85 522 317 1040 85 807 l 83 35 b 117 1 83 17 97 1 b 149 35 135 1 149 17 l 150 488 l 1054 488 l 1056 33 b 1088 1 1056 15 1069 1 b 1121 33 1106 1 1121 15 z m 151 553 b 603 974 167 788 363 974 b 1053 553 840 974 1036 788 z m 517 1125 b 560 1114 525 1110 543 1107 l 671 1178 b 686 1224 689 1188 694 1207 b 639 1235 676 1239 657 1244 l 528 1171 b 517 1125 511 1161 507 1142 z "},"`":{"ha":346,"x_min":0,"x_max":0,"o":"m 257 847 b 246 893 267 864 263 883 l 135 957 b 88 946 117 967 97 961 b 103 900 79 929 85 910 l 214 836 b 257 847 231 829 249 832 z "},"À":{"ha":1204,"x_min":0,"x_max":0,"o":"m 1121 522 b 603 1040 1121 807 888 1040 b 85 522 317 1040 85 807 l 83 35 b 117 1 83 17 97 1 b 149 35 135 1 149 17 l 150 488 l 1054 488 l 1056 33 b 1088 1 1056 15 1069 1 b 1121 33 1106 1 1121 15 z m 151 553 b 603 974 167 788 363 974 b 1053 553 840 974 1036 788 z m 656 1125 b 644 1171 665 1142 661 1161 l 533 1235 b 486 1224 515 1244 496 1239 b 501 1178 478 1207 483 1188 l 613 1114 b 656 1125 629 1107 647 1110 z "},"Ä":{"ha":1204,"x_min":0,"x_max":0,"o":"m 1121 522 b 603 1040 1121 807 888 1040 b 85 522 317 1040 85 807 l 83 35 b 117 1 83 17 97 1 b 149 35 135 1 149 17 l 150 488 l 1054 488 l 1056 33 b 1088 1 1056 15 1069 1 b 1121 33 1106 1 1121 15 z m 151 553 b 603 974 167 788 363 974 b 1053 553 840 974 1036 788 z m 381 1110 b 413 1142 399 1110 413 1124 l 413 1215 b 381 1249 413 1233 399 1249 b 347 1215 363 1249 347 1233 l 347 1142 b 381 1110 347 1124 363 1110 z m 769 1110 b 801 1142 788 1110 801 1124 l 801 1215 b 769 1249 801 1233 788 1249 b 736 1215 751 1249 736 1233 l 736 1142 b 769 1110 736 1124 751 1110 z "},"Ǽ":{"ha":2008,"x_min":0,"x_max":0,"o":"m 1892 68 b 1574 67 1892 68 1575 67 b 1121 486 1335 68 1139 253 l 1711 486 b 1744 519 1729 486 1744 501 b 1711 553 1744 538 1729 553 l 1121 553 b 1574 975 1138 789 1335 975 l 1892 975 b 1925 1008 1910 975 1925 990 b 1892 1042 1925 1026 1910 1042 l 1574 1042 b 1088 704 1351 1042 1161 901 b 603 1040 1013 900 824 1040 b 85 522 317 1040 85 807 l 83 35 b 117 1 83 17 97 1 b 149 35 135 1 149 17 l 150 488 l 1054 488 l 1056 33 b 1088 1 1056 15 1069 1 b 1121 33 1106 1 1121 15 l 1121 267 b 1574 1 1210 108 1379 1 l 1892 1 b 1925 35 1910 1 1925 17 b 1892 68 1925 53 1910 68 z m 151 553 b 603 974 167 788 363 974 b 1053 553 840 974 1036 788 z m 1004 1125 b 1047 1114 1013 1110 1031 1107 l 1158 1178 b 1174 1224 1176 1188 1182 1207 b 1126 1235 1164 1239 1144 1244 l 1015 1171 b 1004 1125 999 1161 994 1142 z "},"Ć":{"ha":1068,"x_min":0,"x_max":0,"o":"m 601 1 l 951 1 b 985 33 969 1 985 15 b 951 67 985 51 969 67 l 601 67 b 149 519 351 67 149 271 b 601 974 149 769 351 972 b 951 972 603 974 951 972 b 985 1006 969 972 985 988 b 951 1039 985 1024 969 1039 l 601 1039 b 83 519 315 1039 83 806 b 601 1 83 235 315 1 z m 446 1125 b 489 1114 454 1110 472 1107 l 600 1178 b 615 1224 618 1188 624 1207 b 568 1235 606 1239 586 1244 l 457 1171 b 446 1125 440 1161 436 1142 z "},"É":{"ha":1038,"x_min":0,"x_max":0,"o":"m 921 68 b 603 67 921 68 604 67 b 150 486 364 68 168 253 l 740 486 b 774 519 758 486 774 501 b 740 553 774 538 758 553 l 150 553 b 603 975 167 789 364 975 l 921 975 b 954 1008 939 975 954 990 b 921 1042 954 1026 939 1042 l 603 1042 b 83 521 317 1042 83 808 b 603 1 83 235 317 1 l 921 1 b 954 35 939 1 954 17 b 921 68 954 53 939 68 z m 429 1125 b 472 1114 438 1110 456 1107 l 583 1178 b 599 1224 601 1188 607 1207 b 551 1235 589 1239 569 1244 l 440 1171 b 429 1125 424 1161 419 1142 z "},"È":{"ha":1038,"x_min":0,"x_max":0,"o":"m 921 68 b 603 67 921 68 604 67 b 150 486 364 68 168 253 l 740 486 b 774 519 758 486 774 501 b 740 553 774 538 758 553 l 150 553 b 603 975 167 789 364 975 l 921 975 b 954 1008 939 975 954 990 b 921 1042 954 1026 939 1042 l 603 1042 b 83 521 317 1042 83 808 b 603 1 83 235 317 1 l 921 1 b 954 35 939 1 954 17 b 921 68 954 53 939 68 z m 597 1125 b 586 1171 607 1142 603 1161 l 475 1235 b 428 1224 457 1244 438 1239 b 443 1178 419 1207 425 1188 l 554 1114 b 597 1125 571 1107 589 1110 z "},"Í":{"ha":346,"x_min":0,"x_max":0,"o":"m 174 1 b 206 33 192 1 206 15 l 206 1007 b 174 1040 206 1025 192 1040 b 140 1007 156 1040 140 1025 l 140 33 b 174 1 140 15 156 1 z m 89 1125 b 132 1114 97 1110 115 1107 l 243 1178 b 258 1224 261 1188 267 1207 b 211 1235 249 1239 229 1244 l 100 1171 b 89 1125 83 1161 79 1142 z "},"Ì":{"ha":346,"x_min":0,"x_max":0,"o":"m 174 1 b 206 33 192 1 206 15 l 206 1007 b 174 1040 206 1025 192 1040 b 140 1007 156 1040 140 1025 l 140 33 b 174 1 140 15 156 1 z m 257 1125 b 246 1171 267 1142 263 1161 l 135 1235 b 88 1224 117 1244 97 1239 b 103 1178 79 1207 85 1188 l 214 1114 b 257 1125 231 1107 249 1110 z "},"Ĳ":{"ha":1146,"x_min":0,"x_max":0,"o":"m 117 1 b 149 33 135 1 149 15 l 149 1007 b 117 1040 149 1025 135 1040 b 83 1007 99 1040 83 1025 l 83 33 b 117 1 83 15 99 1 z m 251 1 l 547 1 b 1061 515 831 1 1061 232 l 1063 1008 b 1031 1040 1063 1026 1049 1040 b 997 1008 1013 1040 997 1026 l 996 515 b 547 67 996 268 794 67 l 251 67 b 218 33 233 67 218 51 b 251 1 218 17 233 1 z "},"Ĺ":{"ha":1011,"x_min":0,"x_max":0,"o":"m 894 1 b 928 33 913 1 928 17 b 894 67 928 51 913 67 l 599 67 b 150 515 351 67 150 268 l 149 1008 b 115 1040 149 1026 133 1040 b 83 1008 97 1040 83 1026 l 85 515 b 599 1 85 232 315 1 z m 417 1125 b 460 1114 425 1110 443 1107 l 571 1178 b 586 1224 589 1188 594 1207 b 539 1235 576 1239 557 1244 l 428 1171 b 417 1125 411 1161 407 1142 z "},"Ń":{"ha":1204,"x_min":0,"x_max":0,"o":"m 1121 522 b 603 1040 1121 807 888 1040 b 85 522 317 1040 85 807 l 83 35 b 117 1 83 17 97 1 b 149 35 135 1 149 17 l 150 522 b 603 974 150 771 353 974 b 1054 522 851 974 1054 771 l 1056 33 b 1088 1 1056 15 1069 1 b 1121 33 1106 1 1121 15 z m 519 1125 b 563 1114 528 1110 546 1107 l 674 1178 b 689 1224 692 1188 697 1207 b 642 1235 679 1239 660 1244 l 531 1171 b 519 1125 514 1161 510 1142 z "},"Ó":{"ha":1206,"x_min":0,"x_max":0,"o":"m 603 1 b 1122 521 889 1 1122 235 b 603 1040 1122 807 889 1040 b 83 521 317 1040 83 807 b 603 1 83 235 317 1 z m 603 975 b 1057 521 853 975 1057 771 b 603 67 1057 271 853 67 b 149 521 353 67 149 271 b 603 975 149 771 353 975 z m 518 1125 b 561 1114 526 1110 544 1107 l 672 1178 b 688 1224 690 1188 696 1207 b 640 1235 678 1239 658 1244 l 529 1171 b 518 1125 513 1161 508 1142 z "},"Ö":{"ha":1206,"x_min":0,"x_max":0,"o":"m 603 1 b 1122 521 889 1 1122 235 b 603 1040 1122 807 889 1040 b 83 521 317 1040 83 807 b 603 1 83 235 317 1 z m 603 975 b 1057 521 853 975 1057 771 b 603 67 1057 271 853 67 b 149 521 353 67 149 271 b 603 975 149 771 353 975 z m 400 1111 b 432 1143 418 1111 432 1125 l 432 1217 b 400 1250 432 1235 418 1250 b 367 1217 382 1250 367 1235 l 367 1143 b 400 1111 367 1125 382 1111 z m 789 1111 b 821 1143 807 1111 821 1125 l 821 1217 b 789 1250 821 1235 807 1250 b 756 1217 771 1250 756 1235 l 756 1143 b 789 1111 756 1125 771 1111 z "},"Ò":{"ha":1206,"x_min":0,"x_max":0,"o":"m 603 1 b 1122 521 889 1 1122 235 b 603 1040 1122 807 889 1040 b 83 521 317 1040 83 807 b 603 1 83 235 317 1 z m 603 975 b 1057 521 853 975 1057 771 b 603 67 1057 271 853 67 b 149 521 353 67 149 271 b 603 975 149 771 353 975 z m 686 1125 b 675 1171 696 1142 692 1161 l 564 1235 b 517 1224 546 1244 526 1239 b 532 1178 508 1207 514 1188 l 643 1114 b 686 1125 660 1107 678 1110 z "},"Œ":{"ha":2011,"x_min":0,"x_max":0,"o":"m 1089 339 b 1576 1 1163 142 1354 1 l 1894 1 b 1928 35 1913 1 1928 17 b 1894 68 1928 53 1913 68 b 1576 67 1894 68 1578 67 b 1124 486 1338 68 1142 253 l 1714 486 b 1747 519 1732 486 1747 501 b 1714 553 1747 538 1732 553 l 1124 553 b 1576 975 1140 789 1338 975 l 1894 975 b 1928 1008 1913 975 1928 990 b 1894 1042 1928 1026 1913 1042 l 1576 1042 b 1089 703 1354 1042 1163 900 b 603 1040 1015 900 825 1040 b 83 521 317 1040 83 807 b 603 1 83 235 317 1 b 1089 339 825 1 1015 142 z m 603 975 b 1057 521 853 975 1057 771 b 603 67 1057 271 853 67 b 149 521 353 67 149 271 b 603 975 149 771 353 975 z "},"o":{"ha":1206,"x_min":0,"x_max":0,"o":"m 603 1 b 1122 521 889 1 1122 235 b 603 1040 1122 807 889 1040 b 83 521 317 1040 83 807 b 603 1 83 235 317 1 z m 603 975 b 1057 521 853 975 1057 771 b 603 67 1057 271 853 67 b 149 521 353 67 149 271 b 603 975 149 771 353 975 z "},"Ŕ":{"ha":1011,"x_min":0,"x_max":0,"o":"m 894 1040 l 599 1040 b 85 526 315 1040 85 810 l 83 33 b 115 1 83 15 97 1 b 149 33 133 1 149 15 l 150 526 b 599 975 150 774 351 975 l 894 975 b 928 1008 913 975 928 990 b 894 1040 928 1025 913 1040 z m 419 1125 b 463 1114 428 1110 446 1107 l 574 1178 b 589 1224 592 1188 597 1207 b 542 1235 579 1239 560 1244 l 431 1171 b 419 1125 414 1161 410 1142 z "},"Ś":{"ha":983,"x_min":0,"x_max":0,"o":"m 361 486 l 622 486 b 833 275 736 479 833 392 b 622 64 833 154 731 64 l 117 64 b 83 31 99 64 83 49 b 117 -1 83 14 99 -1 l 622 -1 b 899 275 775 -1 899 122 b 819 468 899 347 871 417 b 622 551 800 489 736 549 l 361 551 b 150 763 247 558 150 646 b 361 974 150 883 253 974 l 867 974 b 900 1007 885 974 900 989 b 867 1039 900 1024 885 1039 l 361 1039 b 85 763 208 1039 85 915 b 164 569 85 690 113 621 b 361 486 183 549 247 489 z m 400 1125 b 443 1114 408 1110 426 1107 l 554 1178 b 569 1224 572 1188 578 1207 b 522 1235 560 1239 540 1244 l 411 1171 b 400 1125 394 1161 390 1142 z "},"Ú":{"ha":1204,"x_min":0,"x_max":0,"o":"m 83 518 b 601 0 83 233 317 0 b 1119 518 888 0 1119 233 l 1121 1006 b 1088 1039 1121 1024 1107 1039 b 1056 1006 1069 1039 1056 1024 l 1054 518 b 601 67 1054 269 851 67 b 150 518 353 67 150 269 l 149 1007 b 117 1039 149 1025 135 1039 b 83 1007 99 1039 83 1025 z m 517 1125 b 560 1114 525 1110 543 1107 l 671 1178 b 686 1224 689 1188 694 1207 b 639 1235 676 1239 657 1244 l 528 1171 b 517 1125 511 1161 507 1142 z "},"Ù":{"ha":1204,"x_min":0,"x_max":0,"o":"m 83 518 b 601 0 83 233 317 0 b 1119 518 888 0 1119 233 l 1121 1006 b 1088 1039 1121 1024 1107 1039 b 1056 1006 1069 1039 1056 1024 l 1054 518 b 601 67 1054 269 851 67 b 150 518 353 67 150 269 l 149 1007 b 117 1039 149 1025 135 1039 b 83 1007 99 1039 83 1025 z m 685 1125 b 674 1171 694 1142 690 1161 l 563 1235 b 515 1224 544 1244 525 1239 b 531 1178 507 1207 513 1188 l 642 1114 b 685 1125 658 1107 676 1110 z "},"Ü":{"ha":1204,"x_min":0,"x_max":0,"o":"m 83 518 b 601 0 83 233 317 0 b 1119 518 888 0 1119 233 l 1121 1006 b 1088 1039 1121 1024 1107 1039 b 1056 1006 1069 1039 1056 1024 l 1054 518 b 601 67 1054 269 851 67 b 150 518 353 67 150 269 l 149 1007 b 117 1039 149 1025 135 1039 b 83 1007 99 1039 83 1025 z m 411 1110 b 443 1142 429 1110 443 1124 l 443 1215 b 411 1249 443 1233 429 1249 b 378 1215 393 1249 378 1233 l 378 1142 b 411 1110 378 1124 393 1110 z m 800 1110 b 832 1142 818 1110 832 1124 l 832 1215 b 800 1249 832 1233 818 1249 b 767 1215 782 1249 767 1233 l 767 1142 b 800 1110 767 1124 782 1110 z "},"Ẃ":{"ha":1200,"x_min":0,"x_max":0,"o":"m 1117 1007 b 1083 1040 1117 1025 1101 1040 b 1051 1007 1065 1040 1051 1025 l 1051 517 b 635 68 1051 281 867 85 l 635 519 b 601 551 635 538 619 551 b 569 519 583 551 569 538 l 569 68 b 149 518 335 83 149 279 l 149 1007 b 117 1040 149 1025 135 1040 b 83 1007 99 1040 83 1025 l 83 518 b 600 1 83 233 315 1 b 1117 517 885 1 1117 232 z m 517 1125 b 560 1114 525 1110 543 1107 l 671 1178 b 686 1224 689 1188 694 1207 b 639 1235 676 1239 657 1244 l 528 1171 b 517 1125 511 1161 507 1142 z "},"Ẅ":{"ha":1200,"x_min":0,"x_max":0,"o":"m 1117 1007 b 1083 1040 1117 1025 1101 1040 b 1051 1007 1065 1040 1051 1025 l 1051 517 b 635 68 1051 281 867 85 l 635 519 b 601 551 635 538 619 551 b 569 519 583 551 569 538 l 569 68 b 149 518 335 83 149 279 l 149 1007 b 117 1040 149 1025 135 1040 b 83 1007 99 1040 83 1025 l 83 518 b 600 1 83 233 315 1 b 1117 517 885 1 1117 232 z m 407 1110 b 439 1142 425 1110 439 1124 l 439 1215 b 407 1249 439 1233 425 1249 b 374 1215 389 1249 374 1233 l 374 1142 b 407 1110 374 1124 389 1110 z m 796 1110 b 828 1142 814 1110 828 1124 l 828 1215 b 796 1249 828 1233 814 1249 b 763 1215 778 1249 763 1233 l 763 1142 b 796 1110 763 1124 778 1110 z "},"Ẁ":{"ha":1200,"x_min":0,"x_max":0,"o":"m 1117 1007 b 1083 1040 1117 1025 1101 1040 b 1051 1007 1065 1040 1051 1025 l 1051 517 b 635 68 1051 281 867 85 l 635 519 b 601 551 635 538 619 551 b 569 519 583 551 569 538 l 569 68 b 149 518 335 83 149 279 l 149 1007 b 117 1040 149 1025 135 1040 b 83 1007 99 1040 83 1025 l 83 518 b 600 1 83 233 315 1 b 1117 517 885 1 1117 232 z m 685 1125 b 674 1171 694 1142 690 1161 l 563 1235 b 515 1224 544 1244 525 1239 b 531 1178 507 1207 513 1188 l 642 1114 b 685 1125 658 1107 676 1110 z "},"Ý":{"ha":1204,"x_min":0,"x_max":0,"o":"m 1119 1004 b 1088 1039 1121 1024 1107 1039 b 1054 1004 1069 1039 1056 1024 b 601 553 1054 756 851 553 b 150 1004 353 553 150 756 b 117 1039 149 1025 135 1039 b 83 1004 99 1039 83 1025 b 568 488 83 731 299 504 l 568 33 b 601 1 568 15 583 1 b 633 33 619 1 633 15 l 633 486 b 1119 1004 904 503 1119 729 z m 518 1125 b 561 1114 526 1110 544 1107 l 672 1178 b 688 1224 690 1188 696 1207 b 640 1235 678 1239 658 1244 l 529 1171 b 518 1125 513 1161 508 1142 z "},"Ÿ":{"ha":1204,"x_min":0,"x_max":0,"o":"m 1119 1004 b 1088 1039 1121 1024 1107 1039 b 1054 1004 1069 1039 1056 1024 b 601 553 1054 756 851 553 b 150 1004 353 553 150 756 b 117 1039 149 1025 135 1039 b 83 1004 99 1039 83 1025 b 568 488 83 731 299 504 l 568 33 b 601 1 568 15 583 1 b 633 33 619 1 633 15 l 633 486 b 1119 1004 904 503 1119 729 z m 408 1110 b 440 1142 426 1110 440 1124 l 440 1215 b 408 1249 440 1233 426 1249 b 375 1215 390 1249 375 1233 l 375 1142 b 408 1110 375 1124 390 1110 z m 797 1110 b 829 1142 815 1110 829 1124 l 829 1215 b 797 1249 829 1233 815 1249 b 764 1215 779 1249 764 1233 l 764 1142 b 797 1110 764 1124 779 1110 z "},"Ỳ":{"ha":1204,"x_min":0,"x_max":0,"o":"m 1119 1004 b 1088 1039 1121 1024 1107 1039 b 1054 1004 1069 1039 1056 1024 b 601 553 1054 756 851 553 b 150 1004 353 553 150 756 b 117 1039 149 1025 135 1039 b 83 1004 99 1039 83 1025 b 568 488 83 731 299 504 l 568 33 b 601 1 568 15 583 1 b 633 33 619 1 633 15 l 633 486 b 1119 1004 904 503 1119 729 z m 686 1125 b 675 1171 696 1142 692 1161 l 564 1235 b 517 1224 546 1244 526 1239 b 532 1178 508 1207 514 1188 l 643 1114 b 686 1125 660 1107 678 1110 z "},"Ź":{"ha":983,"x_min":0,"x_max":0,"o":"m 361 549 b 164 465 247 546 183 486 b 85 272 113 414 85 344 b 361 -4 85 119 208 -4 l 867 -4 b 900 28 885 -4 900 11 b 867 61 900 46 885 61 l 361 61 b 150 272 253 61 150 151 b 360 483 150 388 246 475 l 622 483 b 819 567 736 486 800 546 b 899 760 871 618 899 688 b 622 1036 899 913 775 1036 l 117 1036 b 83 1004 99 1036 83 1021 b 117 971 83 986 99 971 l 622 971 b 833 760 731 971 833 881 b 622 549 833 643 736 556 z m 404 1125 b 447 1114 413 1110 431 1107 l 558 1178 b 574 1224 576 1188 582 1207 b 526 1235 564 1239 544 1244 l 415 1171 b 404 1125 399 1161 394 1142 z "},"G":{"ha":1068,"x_min":0,"x_max":0,"o":"m 985 521 b 953 554 985 539 971 554 b 919 521 935 554 919 539 l 919 67 l 601 67 b 149 519 351 67 149 271 b 601 974 149 769 351 972 b 951 972 603 974 951 972 b 985 1006 969 972 985 988 b 951 1039 985 1024 969 1039 l 601 1039 b 83 519 315 1039 83 806 b 601 1 83 235 315 1 l 951 1 b 985 32 969 1 983 14 z "},"K":{"ha":1206,"x_min":0,"x_max":0,"o":"m 149 33 l 149 36 b 603 488 149 285 353 488 b 1054 36 851 488 1054 285 l 1121 36 b 647 553 1121 306 911 529 l 649 1008 b 617 1040 649 1026 635 1040 b 583 1008 599 1040 583 1026 l 582 554 b 149 285 394 546 233 439 l 149 1007 b 117 1040 149 1025 135 1040 b 83 1007 99 1040 83 1025 l 83 33 b 117 0 83 15 97 0 b 149 33 135 0 149 15 z m 1090 1 b 1122 33 1108 1 1122 15 l 1057 33 b 1090 1 1057 15 1072 1 z "},"k":{"ha":1204,"x_min":0,"x_max":0,"o":"m 1089 0 b 1121 32 1107 0 1121 14 b 636 553 1121 306 906 535 l 638 1008 b 606 1040 638 1026 624 1040 b 572 1008 588 1040 572 1026 l 571 515 b 149 67 571 278 381 83 l 149 1007 b 117 1040 149 1025 135 1040 b 83 1007 99 1040 83 1025 l 83 33 b 117 0 83 15 97 0 l 122 0 b 635 486 393 3 619 218 b 1054 32 868 469 1054 269 b 1089 0 1054 14 1071 0 z "},"ǽ":{"ha":2010,"x_min":0,"x_max":0,"o":"m 1926 33 b 1894 65 1926 51 1913 65 l 1121 65 l 1121 488 l 1894 488 b 1926 521 1913 488 1926 503 b 1894 553 1926 539 1913 553 l 1119 553 b 603 1040 1104 824 876 1040 b 85 522 317 1040 85 807 l 83 35 b 117 1 83 17 97 1 b 149 35 135 1 149 17 l 150 488 l 1054 488 l 1056 33 l 1056 25 b 1057 22 1056 25 1057 24 l 1057 21 b 1058 19 1057 21 1058 21 b 1065 8 1060 15 1063 11 b 1089 0 1072 3 1079 0 l 1894 0 b 1926 33 1913 0 1926 15 z m 151 553 b 603 974 167 788 363 974 b 1053 553 840 974 1036 788 z m 1926 1010 b 1894 1042 1926 1028 1913 1042 l 1089 1042 b 1056 1010 1071 1042 1056 1028 b 1089 976 1056 992 1071 976 l 1894 976 b 1926 1010 1913 976 1926 992 z m 999 1124 b 1042 1113 1007 1108 1025 1106 l 1153 1176 b 1168 1222 1171 1186 1176 1206 b 1121 1233 1158 1238 1139 1243 l 1010 1169 b 999 1124 993 1160 989 1140 z "},"æ":{"ha":2010,"x_min":0,"x_max":0,"o":"m 1926 33 b 1894 65 1926 51 1913 65 l 1121 65 l 1121 488 l 1894 488 b 1926 521 1913 488 1926 503 b 1894 553 1926 539 1913 553 l 1119 553 b 603 1040 1104 824 876 1040 b 85 522 317 1040 85 807 l 83 35 b 117 1 83 17 97 1 b 149 35 135 1 149 17 l 150 488 l 1054 488 l 1056 33 b 1057 22 1056 29 1056 26 b 1058 19 1057 22 1057 21 l 1063 11 b 1089 0 1069 4 1079 0 l 1894 0 b 1926 33 1913 0 1926 15 z m 151 553 b 603 974 167 788 363 974 b 1053 553 840 974 1036 788 z m 1926 1010 b 1894 1042 1926 1028 1913 1042 l 1089 1042 b 1056 1010 1071 1042 1056 1028 b 1089 976 1056 992 1071 976 l 1894 976 b 1926 1010 1913 976 1926 992 z "},"ﬀ":{"ha":1867,"x_min":0,"x_max":0,"o":"m 946 1 b 978 33 964 1 978 15 l 978 486 l 1569 486 b 1603 519 1588 486 1603 501 b 1569 553 1603 538 1588 553 l 979 553 b 1432 975 996 789 1193 975 l 1750 975 b 1783 1008 1768 975 1783 990 b 1750 1042 1783 1026 1768 1042 l 1432 1042 b 913 553 1156 1042 929 825 l 150 553 b 603 975 167 789 364 975 l 921 975 b 954 1008 939 975 954 990 b 921 1042 954 1026 939 1042 l 603 1042 b 83 521 317 1042 83 808 l 83 33 b 117 1 83 15 99 1 b 149 33 135 1 149 15 l 149 486 l 913 486 l 913 33 b 946 1 913 15 928 1 z "},"ﬃ":{"ha":1867,"x_min":0,"x_max":0,"o":"m 1751 696 b 1783 728 1769 696 1783 710 l 1783 1019 l 1754 1042 l 1432 1042 b 913 553 1156 1042 929 825 l 150 553 b 603 975 167 789 364 975 l 921 975 b 954 1008 939 975 954 990 b 921 1042 954 1026 939 1042 l 603 1042 b 83 521 317 1042 83 808 l 83 33 b 117 1 83 15 99 1 b 149 33 135 1 149 15 l 149 486 l 913 486 l 913 33 b 946 1 913 15 928 1 b 978 33 964 1 978 15 l 978 486 l 1569 486 b 1603 519 1588 486 1603 501 b 1569 553 1603 538 1588 553 l 979 553 b 1432 975 996 789 1193 975 l 1718 975 l 1718 728 b 1751 696 1718 710 1733 696 z m 1751 3 b 1783 35 1769 3 1783 17 l 1783 518 b 1751 551 1783 536 1769 551 b 1718 518 1733 551 1718 536 l 1718 35 b 1751 3 1718 17 1733 3 z m 1754 1042 b 1783 1019 1767 1039 1779 1032 z "},"ﬄ":{"ha":2646,"x_min":0,"x_max":0,"o":"m 946 1 b 978 33 964 1 978 15 l 978 486 l 1569 486 b 1603 519 1588 486 1603 501 b 1569 553 1603 538 1588 553 l 979 553 b 1432 975 996 789 1193 975 l 1718 975 l 1719 517 b 2233 3 1719 233 1950 3 l 2529 3 b 2563 35 2547 3 2563 18 b 2529 68 2563 53 2547 68 l 2233 68 b 1785 517 1986 68 1785 269 l 1783 1010 l 1783 1013 b 1750 1042 1782 1029 1767 1042 l 1432 1042 b 913 553 1156 1042 929 825 l 150 553 b 603 975 167 789 364 975 l 921 975 b 954 1008 939 975 954 990 b 921 1042 954 1026 939 1042 l 603 1042 b 83 521 317 1042 83 808 l 83 33 b 117 1 83 15 99 1 b 149 33 135 1 149 15 l 149 486 l 913 486 l 913 33 b 946 1 913 15 928 1 z "},"ﬂ":{"ha":1817,"x_min":0,"x_max":0,"o":"m 117 1 b 149 33 135 1 149 15 l 149 486 l 740 486 b 774 519 758 486 774 501 b 740 553 774 538 758 553 l 150 553 b 603 975 167 789 364 975 l 889 975 l 890 515 b 1404 1 890 232 1121 1 l 1700 1 b 1733 33 1718 1 1733 17 b 1700 67 1733 51 1718 67 l 1404 67 b 956 515 1157 67 956 268 l 954 1008 b 953 1015 954 1011 954 1014 b 951 1019 953 1017 953 1018 b 949 1026 951 1022 950 1024 b 921 1042 942 1035 932 1042 l 603 1042 b 83 521 317 1042 83 808 l 83 33 b 117 1 83 15 99 1 z "},"/":{"ha":1053,"x_min":0,"x_max":0,"o":"m 96 8 b 142 13 110 -3 129 -1 l 960 988 b 957 1033 972 1001 971 1022 b 910 1029 944 1046 922 1043 l 90 54 b 96 8 81 40 83 21 z "},"\\":{"ha":1053,"x_min":0,"x_max":0,"o":"m 957 8 b 963 54 969 21 972 40 l 143 1029 b 96 1033 131 1043 108 1046 b 93 988 82 1022 81 1001 l 911 13 b 957 8 924 -1 943 -3 z "},"⁄":{"ha":1053,"x_min":0,"x_max":0,"o":"m 96 10 b 142 14 110 -1 129 0 l 960 989 b 957 1035 972 1003 971 1024 b 910 1031 944 1047 922 1044 l 90 56 b 96 10 81 42 83 22 z "},"&":{"ha":985,"x_min":0,"x_max":0,"o":"m 625 1040 l 360 1040 b 83 764 207 1040 83 917 b 163 571 83 692 111 622 b 228 521 182 551 204 533 b 163 471 204 508 182 492 b 83 278 111 419 83 350 b 360 1 83 125 207 1 l 469 1 l 469 -244 b 503 -276 469 -262 485 -276 b 535 -244 521 -276 535 -262 l 535 1 l 625 1 b 901 278 778 1 901 125 b 822 471 901 350 874 419 b 757 521 803 492 781 508 b 822 571 781 533 803 551 b 901 764 874 622 901 692 b 625 1040 901 917 778 1040 z m 836 764 b 625 554 836 644 732 554 l 360 554 b 149 764 253 554 149 644 b 360 975 149 881 243 975 l 625 975 b 836 764 742 975 836 881 z m 469 67 l 360 67 b 149 278 251 67 149 157 b 360 489 149 394 246 482 l 469 489 z m 836 278 b 625 67 836 157 733 67 l 535 67 l 535 489 l 625 489 b 836 278 739 482 836 394 z "},"@":{"ha":1206,"x_min":0,"x_max":0,"o":"m 603 1 b 1122 521 889 1 1122 235 b 603 1040 1122 807 889 1040 b 83 521 317 1040 83 807 b 603 1 83 235 317 1 z m 603 975 b 1057 521 853 975 1057 771 b 603 67 1057 271 853 67 b 149 521 353 67 149 271 b 603 975 149 771 353 975 z m 932 589 b 606 915 932 768 785 915 b 279 589 425 915 279 768 l 278 281 b 299 260 278 269 286 260 b 319 281 311 260 319 269 l 321 567 l 889 567 l 890 281 b 911 260 890 268 899 260 b 932 281 922 260 932 268 z m 321 607 b 606 872 331 756 454 872 b 889 607 756 872 878 756 z "},"©":{"ha":1206,"x_min":0,"x_max":0,"o":"m 603 1 b 1122 521 889 1 1122 235 b 603 1040 1122 807 889 1040 b 83 521 317 1040 83 807 b 603 1 83 235 317 1 z m 603 975 b 1057 521 853 975 1057 771 b 603 67 1057 271 853 67 b 149 521 353 67 149 271 b 603 975 149 771 353 975 z m 571 208 l 781 208 b 800 228 792 208 800 217 b 781 249 800 239 792 249 l 571 249 b 299 519 421 249 299 371 b 571 792 299 669 421 792 l 781 792 b 800 811 792 792 800 800 b 781 832 800 822 792 832 l 571 832 b 260 519 399 832 260 692 b 571 208 260 349 399 208 z "},"®":{"ha":1206,"x_min":0,"x_max":0,"o":"m 603 1 b 1122 521 889 1 1122 235 b 603 1040 1122 807 889 1040 b 83 521 317 1040 83 807 b 603 1 83 235 317 1 z m 603 975 b 1057 521 853 975 1057 771 b 603 67 1057 271 853 67 b 149 521 353 67 149 271 b 603 975 149 771 353 975 z m 422 208 b 442 228 433 208 442 217 l 442 499 l 724 499 b 890 664 815 499 890 572 b 842 781 890 708 874 750 b 724 831 831 793 792 829 l 421 831 b 400 810 410 831 400 821 b 421 792 400 800 410 792 l 724 792 b 850 664 792 788 850 735 b 724 538 850 592 789 538 l 421 538 b 400 518 410 538 400 529 b 403 228 400 515 401 513 b 422 208 403 217 411 208 z m 772 208 b 792 228 783 208 792 217 l 792 435 b 772 454 792 446 783 454 b 753 435 761 454 753 446 l 753 228 b 772 208 753 217 761 208 z "},"(":{"ha":718,"x_min":0,"x_max":0,"o":"m 601 1 b 635 33 619 1 635 15 b 601 67 635 51 619 67 b 149 519 351 67 149 271 b 601 972 149 769 354 975 b 635 1006 619 972 635 988 b 601 1039 635 1024 619 1039 b 83 519 315 1039 83 806 b 601 1 83 235 315 1 z "},")":{"ha":718,"x_min":0,"x_max":0,"o":"m 117 1 b 635 519 403 1 635 235 b 117 1039 635 806 403 1039 b 83 1006 99 1039 83 1024 b 117 972 83 988 99 972 b 569 519 364 975 569 769 b 117 67 569 271 367 67 b 83 33 99 67 83 51 b 117 1 83 15 99 1 z "},"ﬁ":{"ha":1038,"x_min":0,"x_max":0,"o":"m 922 694 b 954 726 940 694 954 708 l 954 1004 l 950 1025 b 921 1042 944 1035 933 1042 l 603 1042 b 83 521 317 1042 83 808 l 83 33 b 117 1 83 15 99 1 b 149 33 135 1 149 15 l 149 486 l 740 486 b 774 519 758 486 774 501 b 740 553 774 538 758 553 l 150 553 b 603 975 167 789 364 975 l 889 975 l 889 726 b 922 694 889 708 904 694 z m 922 1 b 954 33 940 1 954 15 l 954 517 b 922 550 954 535 940 550 b 889 517 904 550 889 535 l 889 33 b 922 1 889 15 904 1 z "},"é":{"ha":1038,"x_min":0,"x_max":0,"o":"m 954 521 b 922 553 954 539 940 553 l 117 553 b 83 521 99 553 83 539 b 117 488 83 503 99 488 l 922 488 b 954 521 940 488 954 503 z m 954 1010 b 922 1042 954 1028 940 1042 l 117 1042 b 83 1010 99 1042 83 1028 b 117 976 83 992 99 976 l 922 976 b 954 1010 940 976 954 992 z m 954 33 b 922 65 954 51 940 65 l 117 65 b 83 33 99 65 83 51 b 117 0 83 15 99 0 l 922 0 b 954 33 940 0 954 15 z m 594 713 b 551 701 586 697 568 694 l 440 765 b 425 811 422 775 417 794 b 472 822 435 826 454 832 l 583 758 b 594 713 600 749 604 729 z "},"ë":{"ha":1038,"x_min":0,"x_max":0,"o":"m 954 521 b 922 553 954 539 940 553 l 117 553 b 83 521 99 553 83 539 b 117 488 83 503 99 488 l 922 488 b 954 521 940 488 954 503 z m 954 1010 b 922 1042 954 1028 940 1042 l 117 1042 b 83 1010 99 1042 83 1028 b 117 976 83 992 99 976 l 922 976 b 954 1010 940 976 954 992 z m 954 33 b 922 65 954 51 940 65 l 117 65 b 83 33 99 65 83 51 b 117 0 83 15 99 0 l 922 0 b 954 33 940 0 954 15 z m 351 1110 b 383 1142 369 1110 383 1124 l 383 1215 b 351 1249 383 1233 369 1249 b 318 1215 333 1249 318 1233 l 318 1142 b 351 1110 318 1124 333 1110 z m 740 1110 b 772 1142 758 1110 772 1124 l 772 1215 b 740 1249 772 1233 758 1249 b 707 1215 722 1249 707 1233 l 707 1142 b 740 1110 707 1124 722 1110 z "},"è":{"ha":1038,"x_min":0,"x_max":0,"o":"m 954 521 b 922 553 954 539 940 553 l 117 553 b 83 521 99 553 83 539 b 117 488 83 503 99 488 l 922 488 b 954 521 940 488 954 503 z m 954 1010 b 922 1042 954 1028 940 1042 l 117 1042 b 83 1010 99 1042 83 1028 b 117 976 83 992 99 976 l 922 976 b 954 1010 940 976 954 992 z m 954 33 b 922 65 954 51 940 65 l 117 65 b 83 33 99 65 83 51 b 117 0 83 15 99 0 l 922 0 b 954 33 940 0 954 15 z m 651 1125 b 640 1171 661 1142 657 1161 l 529 1235 b 482 1224 511 1244 492 1239 b 497 1178 474 1207 479 1188 l 608 1114 b 651 1125 625 1107 643 1110 z "},"ẃ":{"ha":1208,"x_min":0,"x_max":0,"o":"m 1125 1006 b 1093 1039 1125 1024 1111 1039 b 1060 1006 1075 1039 1060 1024 l 1060 275 b 849 64 1060 158 965 64 b 638 271 733 64 639 157 l 638 729 b 604 761 638 747 622 761 b 572 729 586 761 572 747 b 571 271 572 729 572 272 b 360 64 569 157 475 64 b 149 272 244 64 150 157 l 149 1006 b 117 1039 149 1024 135 1039 b 83 1006 99 1039 83 1024 l 83 275 b 360 -1 83 122 207 -1 b 554 78 433 -1 503 26 b 604 144 575 97 592 119 b 654 78 617 119 635 97 b 849 -1 707 26 775 -1 b 1125 275 1001 -1 1125 122 z m 689 1125 b 678 1171 699 1142 694 1161 l 567 1235 b 519 1224 549 1244 529 1239 b 535 1178 511 1207 517 1188 l 646 1114 b 689 1125 663 1107 681 1110 z "},"ẅ":{"ha":1208,"x_min":0,"x_max":0,"o":"m 1125 1006 b 1093 1039 1125 1024 1111 1039 b 1060 1006 1075 1039 1060 1024 l 1060 275 b 849 64 1060 158 965 64 b 638 271 733 64 639 157 l 638 729 b 604 761 638 747 622 761 b 572 729 586 761 572 747 b 571 271 572 729 572 272 b 360 64 569 157 475 64 b 149 272 244 64 150 157 l 149 1006 b 117 1039 149 1024 135 1039 b 83 1006 99 1039 83 1024 l 83 275 b 360 -1 83 122 207 -1 b 554 78 433 -1 503 26 b 604 144 575 97 592 119 b 654 78 617 119 635 97 b 849 -1 707 26 775 -1 b 1125 275 1001 -1 1125 122 z m 410 1110 b 442 1142 428 1110 442 1124 l 442 1215 b 410 1249 442 1233 428 1249 b 376 1215 392 1249 376 1233 l 376 1142 b 410 1110 376 1124 392 1110 z m 799 1110 b 831 1142 817 1110 831 1124 l 831 1215 b 799 1249 831 1233 817 1249 b 765 1215 781 1249 765 1233 l 765 1142 b 799 1110 765 1124 781 1110 z "},"ẁ":{"ha":1208,"x_min":0,"x_max":0,"o":"m 1125 1006 b 1093 1039 1125 1024 1111 1039 b 1060 1006 1075 1039 1060 1024 l 1060 275 b 849 64 1060 158 965 64 b 638 271 733 64 639 157 l 638 729 b 604 761 638 747 622 761 b 572 729 586 761 572 747 b 571 271 572 729 572 272 b 360 64 569 157 475 64 b 149 272 244 64 150 157 l 149 1006 b 117 1039 149 1024 135 1039 b 83 1006 99 1039 83 1024 l 83 275 b 360 -1 83 122 207 -1 b 554 78 433 -1 503 26 b 604 144 575 97 592 119 b 654 78 617 119 635 97 b 849 -1 707 26 775 -1 b 1125 275 1001 -1 1125 122 z m 690 1125 b 679 1171 700 1142 696 1161 l 568 1235 b 521 1224 550 1244 531 1239 b 536 1178 513 1207 518 1188 l 647 1114 b 690 1125 664 1107 682 1110 z "},"˝":{"ha":847,"x_min":0,"x_max":0,"o":"m 89 847 b 132 836 97 832 115 829 l 243 900 b 258 946 261 910 267 929 b 211 957 249 961 229 967 l 100 893 b 89 847 83 883 79 864 z m 590 847 b 633 836 599 832 617 829 l 744 900 b 760 946 763 910 768 929 b 713 957 750 961 731 967 l 601 893 b 590 847 585 883 581 864 z "},"Ű":{"ha":1204,"x_min":0,"x_max":0,"o":"m 83 518 b 601 0 83 233 317 0 b 1119 518 888 0 1119 233 l 1121 1006 b 1088 1039 1121 1024 1107 1039 b 1056 1006 1069 1039 1056 1024 l 1054 518 b 601 67 1054 269 851 67 b 150 518 353 67 150 269 l 149 1007 b 117 1039 149 1025 135 1039 b 83 1007 99 1039 83 1025 z m 265 1125 b 308 1114 274 1110 292 1107 l 419 1178 b 435 1224 438 1188 443 1207 b 388 1235 425 1239 406 1244 l 276 1171 b 265 1125 260 1161 256 1142 z m 767 1125 b 810 1114 775 1110 793 1107 l 921 1178 b 936 1224 939 1188 944 1207 b 889 1235 926 1239 907 1244 l 778 1171 b 767 1125 761 1161 757 1142 z "},"Ő":{"ha":1206,"x_min":0,"x_max":0,"o":"m 603 1 b 1122 521 889 1 1122 235 b 603 1040 1122 807 889 1040 b 83 521 317 1040 83 807 b 603 1 83 235 317 1 z m 603 975 b 1057 521 853 975 1057 771 b 603 67 1057 271 853 67 b 149 521 353 67 149 271 b 603 975 149 771 353 975 z m 275 1125 b 318 1114 283 1110 301 1107 l 429 1178 b 444 1224 447 1188 453 1207 b 397 1235 435 1239 415 1244 l 286 1171 b 275 1125 269 1161 265 1142 z m 776 1125 b 819 1114 785 1110 803 1107 l 931 1178 b 946 1224 949 1188 954 1207 b 899 1235 936 1239 917 1244 l 788 1171 b 776 1125 771 1161 767 1142 z "},"ˆ":{"ha":458,"x_min":0,"x_max":0,"o":"m 369 847 b 358 893 379 864 375 883 l 249 956 b 225 961 242 960 233 963 b 208 956 219 961 214 958 l 100 893 b 89 847 83 883 79 864 b 132 836 97 832 115 829 l 229 892 l 326 836 b 369 847 343 829 361 832 z "},"ˇ":{"ha":458,"x_min":0,"x_max":0,"o":"m 369 944 b 326 956 361 960 343 963 l 229 900 l 132 956 b 89 944 115 963 97 960 b 100 899 79 928 83 908 l 208 836 b 225 831 214 833 219 831 b 249 836 233 829 242 832 l 358 899 b 369 944 375 908 379 928 z "},"˙":{"ha":232,"x_min":0,"x_max":0,"o":"m 117 832 b 149 864 135 832 149 846 l 149 938 b 117 971 149 956 135 971 b 83 938 99 971 83 956 l 83 864 b 117 832 83 846 99 832 z "},"˜":{"ha":574,"x_min":0,"x_max":0,"o":"m 347 832 b 354 833 350 832 353 833 l 360 836 l 471 900 b 486 946 489 910 494 929 b 439 957 476 961 457 967 l 343 901 l 249 956 b 225 961 242 960 233 963 b 208 956 219 961 214 958 l 100 893 b 89 847 83 883 79 864 b 132 836 97 832 115 829 l 229 892 l 326 836 l 331 833 b 347 832 336 832 342 832 z "},"¸":{"ha":347,"x_min":0,"x_max":0,"o":"m 88 -242 b 132 -256 96 -258 114 -264 l 240 -192 b 257 -174 249 -187 254 -182 b 263 -157 263 -169 263 -164 l 263 -32 b 229 0 264 -12 249 0 b 197 -31 213 1 199 -12 l 197 -143 l 99 -199 b 88 -242 86 -210 79 -226 z "},"˛":{"ha":347,"x_min":0,"x_max":0,"o":"m 260 -236 b 249 -193 268 -221 261 -204 l 150 -137 l 150 -25 b 118 6 149 -7 135 7 b 85 -26 99 6 83 -7 l 85 -151 b 90 -168 85 -158 85 -164 b 107 -186 93 -176 99 -182 l 215 -250 b 260 -236 233 -258 251 -253 z "},"·":{"ha":232,"x_min":0,"x_max":0,"o":"m 117 418 b 149 450 135 418 149 432 l 149 524 b 117 557 149 542 135 557 b 83 524 99 557 83 542 l 83 450 b 117 418 83 432 99 418 z "},"{":{"ha":975,"x_min":0,"x_max":0,"o":"m 197 664 b 210 621 213 656 215 638 l 153 524 l 210 426 b 197 383 215 410 213 392 b 151 394 182 374 163 378 l 89 503 b 85 519 86 508 85 514 b 89 542 82 528 85 536 l 151 653 b 197 664 163 669 182 674 z m 858 1 b 892 33 876 1 892 15 b 858 67 892 51 876 67 b 406 519 608 67 406 271 b 858 972 406 769 611 975 b 892 1006 876 972 892 988 b 858 1039 892 1024 876 1039 b 340 519 572 1039 340 806 b 858 1 340 235 572 1 z "},"}":{"ha":975,"x_min":0,"x_max":0,"o":"m 778 664 b 824 653 793 674 813 669 l 886 542 b 890 519 890 536 893 528 b 886 503 890 514 889 508 l 824 394 b 778 383 813 378 793 374 b 765 426 763 392 760 410 l 822 524 l 765 621 b 778 664 760 638 763 656 z m 117 1 b 635 519 403 1 635 235 b 117 1039 635 806 403 1039 b 83 1006 99 1039 83 1024 b 117 972 83 988 99 972 b 569 519 364 975 569 769 b 117 67 569 271 367 67 b 83 33 99 67 83 51 b 117 1 83 15 99 1 z "},"‹":{"ha":296,"x_min":0,"x_max":0,"o":"m 197 664 b 151 653 182 674 163 669 l 89 542 b 85 519 85 536 82 528 b 89 503 85 514 86 508 l 151 394 b 197 383 163 378 182 374 b 210 426 213 392 215 410 l 153 524 l 210 621 b 197 664 215 638 213 656 z "},"«":{"ha":510,"x_min":0,"x_max":0,"o":"m 197 664 b 151 653 182 674 163 669 l 89 542 b 85 519 85 536 82 528 b 89 503 85 514 86 508 l 151 394 b 197 383 163 378 182 374 b 210 426 213 392 215 410 l 153 524 l 210 621 b 197 664 215 638 213 656 z m 411 664 b 365 653 396 674 376 669 l 303 542 b 299 519 299 536 296 528 b 303 503 299 514 300 508 l 365 394 b 411 383 376 378 396 374 b 424 426 426 392 429 410 l 367 524 l 424 621 b 411 664 429 638 426 656 z "},"»":{"ha":510,"x_min":0,"x_max":0,"o":"m 313 664 b 300 621 297 656 294 638 l 357 524 l 300 426 b 313 383 294 410 297 392 b 358 394 328 374 347 378 l 421 503 b 425 519 424 508 425 514 b 421 542 428 528 425 536 l 358 653 b 313 664 347 669 328 674 z m 99 664 b 86 621 83 656 81 638 l 143 524 l 86 426 b 99 383 81 410 83 392 b 144 394 114 374 133 378 l 207 503 b 211 519 210 508 211 514 b 207 542 214 528 211 536 l 144 653 b 99 664 133 669 114 674 z "},"›":{"ha":296,"x_min":0,"x_max":0,"o":"m 99 664 b 86 621 83 656 81 638 l 143 524 l 86 426 b 99 383 81 410 83 392 b 144 394 114 374 133 378 l 207 503 b 211 519 210 508 211 514 b 207 542 214 528 211 536 l 144 653 b 99 664 133 669 114 674 z "},"№":{"ha":2383,"x_min":0,"x_max":0,"o":"m 1121 522 b 603 1040 1121 807 888 1040 b 85 522 317 1040 85 807 l 83 35 b 117 1 83 17 97 1 b 149 35 135 1 149 17 l 150 522 b 603 974 150 771 353 974 b 1054 522 851 974 1054 771 l 1056 33 b 1088 1 1056 15 1069 1 b 1121 33 1106 1 1121 15 z m 1781 1 b 1261 521 1494 1 1261 235 b 1781 1040 1261 807 1494 1040 b 2300 521 2067 1040 2300 807 b 1781 1 2300 235 2067 1 z m 1781 975 b 1326 521 1531 975 1326 771 b 1781 67 1326 271 1531 67 b 2235 521 2031 67 2235 271 b 1781 975 2235 771 2031 975 z m 2238 -172 b 2206 -139 2238 -154 2224 -139 l 1386 -137 b 1353 -171 1368 -137 1353 -154 b 1386 -206 1354 -190 1368 -206 l 2206 -204 b 2238 -172 2224 -204 2236 -190 z "},"¡":{"ha":232,"x_min":0,"x_max":0,"o":"m 115 1136 b 83 1104 97 1136 83 1122 l 83 1031 b 115 997 83 1013 97 997 b 149 1031 133 997 149 1013 l 149 1104 b 115 1136 149 1122 133 1136 z m 115 788 b 83 756 97 788 83 774 l 83 -37 b 115 -71 83 -56 97 -71 b 149 -37 133 -71 149 -56 l 149 756 b 115 788 149 774 133 788 z "},"¿":{"ha":983,"x_min":0,"x_max":0,"o":"m 360 549 b 150 760 246 557 150 644 b 361 971 150 881 253 971 l 867 971 b 900 1004 885 971 900 986 b 867 1036 900 1021 885 1036 l 361 1036 b 85 760 208 1036 85 913 b 164 567 85 688 113 618 b 360 483 183 546 246 488 l 622 483 b 833 272 736 476 833 389 b 622 61 833 151 731 61 l 117 61 b 83 28 99 61 83 46 b 117 -4 83 11 99 -4 l 622 -4 b 899 272 775 -4 899 119 b 819 465 899 344 871 414 b 622 549 800 486 736 546 z m 607 894 b 574 863 589 894 574 881 l 574 789 b 607 756 574 771 589 756 b 639 789 625 756 639 771 l 639 863 b 607 894 639 881 625 894 z "},"÷":{"ha":718,"x_min":0,"x_max":0,"o":"m 635 522 b 603 556 635 540 621 556 l 117 557 b 83 524 99 557 83 540 b 117 489 85 504 99 489 l 603 490 b 635 522 621 490 633 504 z m 364 697 b 396 729 382 697 396 711 l 396 803 b 364 836 396 821 382 836 b 331 803 346 836 331 821 l 331 729 b 364 697 331 711 346 697 z m 364 210 b 396 242 382 210 396 224 l 396 315 b 364 349 396 333 382 349 b 331 315 346 349 331 333 l 331 242 b 364 210 331 224 346 210 z "},"=":{"ha":718,"x_min":0,"x_max":0,"o":"m 635 383 b 603 417 635 401 621 417 l 117 418 b 83 385 99 418 83 401 b 117 350 85 365 99 350 l 603 351 b 635 383 621 351 633 365 z m 635 661 b 603 694 635 679 621 694 l 117 696 b 83 663 99 696 83 679 b 117 628 85 643 99 628 l 603 629 b 635 661 621 629 633 643 z "},"-":{"ha":524,"x_min":0,"x_max":0,"o":"m 440 522 b 408 556 440 540 426 556 l 117 557 b 83 524 99 557 83 540 b 117 489 85 504 99 489 l 408 490 b 440 522 426 490 439 504 z "},"–":{"ha":718,"x_min":0,"x_max":0,"o":"m 635 522 b 603 556 635 540 621 556 l 117 557 b 83 524 99 557 83 540 b 117 489 85 504 99 489 l 603 490 b 635 522 621 490 633 504 z "},"—":{"ha":857,"x_min":0,"x_max":0,"o":"m 774 522 b 742 556 774 540 760 556 l 117 557 b 83 524 99 557 83 540 b 117 489 85 504 99 489 l 742 490 b 774 522 760 490 772 504 z "},"−":{"ha":718,"x_min":0,"x_max":0,"o":"m 635 522 b 603 556 635 540 621 556 l 117 557 b 83 524 99 557 83 540 b 117 489 85 504 99 489 l 603 490 b 635 522 621 490 633 504 z "},"Â":{"ha":1204,"x_min":0,"x_max":0,"o":"m 1121 522 b 603 1040 1121 807 888 1040 b 85 522 317 1040 85 807 l 83 35 b 117 1 83 17 97 1 b 149 35 135 1 149 17 l 150 488 l 1054 488 l 1056 33 b 1088 1 1056 15 1069 1 b 1121 33 1106 1 1121 15 z m 151 553 b 603 974 167 788 363 974 b 1053 553 840 974 1036 788 z m 740 1125 b 729 1171 750 1142 746 1161 l 619 1233 b 596 1239 613 1238 604 1240 b 579 1233 590 1239 585 1236 l 471 1171 b 460 1125 454 1161 450 1142 b 503 1114 468 1110 486 1107 l 600 1169 l 697 1114 b 740 1125 714 1107 732 1110 z "},"¯":{"ha":653,"x_min":0,"x_max":0,"o":"m 569 901 b 538 935 569 919 556 933 l 118 935 b 83 901 100 935 85 921 b 117 868 83 885 99 868 l 539 868 b 569 901 556 868 569 885 z "},"Ā":{"ha":1204,"x_min":0,"x_max":0,"o":"m 1121 522 b 603 1040 1121 807 888 1040 b 85 522 317 1040 85 807 l 83 35 b 117 1 83 17 97 1 b 149 35 135 1 149 17 l 150 488 l 1054 488 l 1056 33 b 1088 1 1056 15 1069 1 b 1121 33 1106 1 1121 15 z m 151 553 b 603 974 167 788 363 974 b 1053 553 840 974 1036 788 z m 843 1179 b 811 1213 843 1197 829 1211 l 392 1213 b 357 1179 374 1213 358 1199 b 390 1146 357 1163 372 1146 l 813 1146 b 843 1179 829 1146 843 1163 z "},"Ã":{"ha":1204,"x_min":0,"x_max":0,"o":"m 1121 522 b 603 1040 1121 807 888 1040 b 85 522 317 1040 85 807 l 83 35 b 117 1 83 17 97 1 b 149 35 135 1 149 17 l 150 488 l 1054 488 l 1056 33 b 1088 1 1056 15 1069 1 b 1121 33 1106 1 1121 15 z m 151 553 b 603 974 167 788 363 974 b 1053 553 840 974 1036 788 z m 660 1110 b 667 1111 663 1110 665 1111 l 672 1114 l 783 1178 b 799 1224 801 1188 807 1207 b 751 1235 789 1239 769 1244 l 656 1179 l 561 1233 b 538 1239 554 1238 546 1240 b 521 1233 532 1239 526 1236 l 413 1171 b 401 1125 396 1161 392 1142 b 444 1114 410 1110 428 1107 l 542 1169 l 639 1114 l 643 1111 b 660 1110 649 1110 654 1110 z "},"Ą":{"ha":1204,"x_min":0,"x_max":0,"o":"m 1121 522 b 603 1040 1121 807 888 1040 b 85 522 317 1040 85 807 l 83 35 b 117 1 83 17 97 1 b 149 35 135 1 149 17 l 150 488 l 1054 488 l 1056 33 b 1088 1 1056 15 1069 1 b 1121 33 1106 1 1121 15 z m 151 553 b 603 974 167 788 363 974 b 1053 553 840 974 1036 788 z m 1042 -236 b 997 -250 1033 -253 1015 -258 l 889 -186 b 872 -168 881 -182 875 -176 b 867 -151 867 -164 867 -158 l 867 -26 b 900 6 865 -7 881 6 b 932 -25 917 7 931 -7 l 932 -137 l 1031 -193 b 1042 -236 1043 -204 1050 -221 z "},"Č":{"ha":1068,"x_min":0,"x_max":0,"o":"m 601 1 l 951 1 b 985 33 969 1 985 15 b 951 67 985 51 969 67 l 601 67 b 149 519 351 67 149 271 b 601 974 149 769 351 972 b 951 972 603 974 951 972 b 985 1006 969 972 985 988 b 951 1039 985 1024 969 1039 l 601 1039 b 83 519 315 1039 83 806 b 601 1 83 235 315 1 z m 669 1222 b 626 1233 661 1238 643 1240 l 529 1178 l 432 1233 b 389 1222 415 1240 397 1238 b 400 1176 379 1206 383 1186 l 508 1114 b 525 1108 514 1111 519 1108 b 549 1114 533 1107 542 1110 l 658 1176 b 669 1222 675 1186 679 1206 z "},"Ĉ":{"ha":1068,"x_min":0,"x_max":0,"o":"m 601 1 l 951 1 b 985 33 969 1 985 15 b 951 67 985 51 969 67 l 601 67 b 149 519 351 67 149 271 b 601 974 149 769 351 972 b 951 972 603 974 951 972 b 985 1006 969 972 985 988 b 951 1039 985 1024 969 1039 l 601 1039 b 83 519 315 1039 83 806 b 601 1 83 235 315 1 z m 669 1125 b 658 1171 679 1142 675 1161 l 549 1233 b 525 1239 542 1238 533 1240 b 508 1233 519 1239 514 1236 l 400 1171 b 389 1125 383 1161 379 1142 b 432 1114 397 1110 415 1107 l 529 1169 l 626 1114 b 669 1125 643 1107 661 1110 z "},"Ċ":{"ha":1068,"x_min":0,"x_max":0,"o":"m 601 1 l 951 1 b 985 33 969 1 985 15 b 951 67 985 51 969 67 l 601 67 b 149 519 351 67 149 271 b 601 974 149 769 351 972 b 951 972 603 974 951 972 b 985 1006 969 972 985 988 b 951 1039 985 1024 969 1039 l 601 1039 b 83 519 315 1039 83 806 b 601 1 83 235 315 1 z m 531 1110 b 563 1142 549 1110 563 1124 l 563 1215 b 531 1249 563 1233 549 1249 b 497 1215 513 1249 497 1233 l 497 1142 b 531 1110 497 1124 513 1110 z "},"Ç":{"ha":1068,"x_min":0,"x_max":0,"o":"m 601 1 l 951 1 b 985 33 969 1 985 15 b 951 67 985 51 969 67 l 601 67 b 149 519 351 67 149 271 b 601 974 149 769 351 972 b 951 972 603 974 951 972 b 985 1006 969 972 985 988 b 951 1039 985 1024 969 1039 l 601 1039 b 83 519 315 1039 83 806 b 601 1 83 235 315 1 z m 446 -242 b 457 -199 438 -226 444 -210 l 556 -143 l 556 -31 b 588 0 557 -12 571 1 b 621 -32 607 0 622 -12 l 621 -157 b 615 -174 621 -164 621 -169 b 599 -192 613 -182 607 -187 l 490 -256 b 446 -242 472 -264 454 -258 z "},"Ď":{"ha":1068,"x_min":0,"x_max":0,"o":"m 467 1039 l 117 1039 b 83 1007 99 1039 83 1025 b 117 974 83 989 99 974 l 467 974 b 919 521 717 974 919 769 b 467 67 919 271 717 68 b 117 68 465 67 117 68 b 83 35 99 68 83 53 b 117 1 83 17 99 1 l 467 1 b 985 521 753 1 985 235 b 467 1039 985 806 753 1039 z m 671 1222 b 628 1233 663 1238 644 1240 l 531 1178 l 433 1233 b 390 1222 417 1240 399 1238 b 401 1176 381 1206 385 1186 l 510 1114 b 526 1108 515 1111 521 1108 b 550 1114 535 1107 543 1110 l 660 1176 b 671 1222 676 1186 681 1206 z "},"Ě":{"ha":1038,"x_min":0,"x_max":0,"o":"m 921 68 b 603 67 921 68 604 67 b 150 486 364 68 168 253 l 740 486 b 774 519 758 486 774 501 b 740 553 774 538 758 553 l 150 553 b 603 975 167 789 364 975 l 921 975 b 954 1008 939 975 954 990 b 921 1042 954 1026 939 1042 l 603 1042 b 83 521 317 1042 83 808 b 603 1 83 235 317 1 l 921 1 b 954 35 939 1 954 17 b 921 68 954 53 939 68 z m 654 1222 b 611 1233 646 1238 628 1240 l 514 1178 l 417 1233 b 374 1222 400 1240 382 1238 b 385 1176 364 1206 368 1186 l 493 1114 b 510 1108 499 1111 504 1108 b 533 1114 518 1107 526 1110 l 643 1176 b 654 1222 660 1186 664 1206 z "},"Ê":{"ha":1038,"x_min":0,"x_max":0,"o":"m 921 68 b 603 67 921 68 604 67 b 150 486 364 68 168 253 l 740 486 b 774 519 758 486 774 501 b 740 553 774 538 758 553 l 150 553 b 603 975 167 789 364 975 l 921 975 b 954 1008 939 975 954 990 b 921 1042 954 1026 939 1042 l 603 1042 b 83 521 317 1042 83 808 b 603 1 83 235 317 1 l 921 1 b 954 35 939 1 954 17 b 921 68 954 53 939 68 z m 654 1125 b 643 1171 664 1142 660 1161 l 533 1233 b 510 1239 526 1238 518 1240 b 493 1233 504 1239 499 1236 l 385 1171 b 374 1125 368 1161 364 1142 b 417 1114 382 1110 400 1107 l 514 1169 l 611 1114 b 654 1125 628 1107 646 1110 z "},"Ė":{"ha":1038,"x_min":0,"x_max":0,"o":"m 921 68 b 603 67 921 68 604 67 b 150 486 364 68 168 253 l 740 486 b 774 519 758 486 774 501 b 740 553 774 538 758 553 l 150 553 b 603 975 167 789 364 975 l 921 975 b 954 1008 939 975 954 990 b 921 1042 954 1026 939 1042 l 603 1042 b 83 521 317 1042 83 808 b 603 1 83 235 317 1 l 921 1 b 954 35 939 1 954 17 b 921 68 954 53 939 68 z m 515 1110 b 547 1142 533 1110 547 1124 l 547 1215 b 515 1249 547 1233 533 1249 b 482 1215 497 1249 482 1233 l 482 1142 b 515 1110 482 1124 497 1110 z "},"Ē":{"ha":1038,"x_min":0,"x_max":0,"o":"m 921 68 b 603 67 921 68 604 67 b 150 486 364 68 168 253 l 740 486 b 774 519 758 486 774 501 b 740 553 774 538 758 553 l 150 553 b 603 975 167 789 364 975 l 921 975 b 954 1008 939 975 954 990 b 921 1042 954 1026 939 1042 l 603 1042 b 83 521 317 1042 83 808 b 603 1 83 235 317 1 l 921 1 b 954 35 939 1 954 17 b 921 68 954 53 939 68 z m 757 1179 b 725 1213 757 1197 743 1211 l 306 1213 b 271 1179 288 1213 272 1199 b 304 1146 271 1163 286 1146 l 726 1146 b 757 1179 743 1146 757 1163 z "},"Ę":{"ha":1038,"x_min":0,"x_max":0,"o":"m 921 68 b 603 67 921 68 604 67 b 150 486 364 68 168 253 l 740 486 b 774 519 758 486 774 501 b 740 553 774 538 758 553 l 150 553 b 603 975 167 789 364 975 l 921 975 b 954 1008 939 975 954 990 b 921 1042 954 1026 939 1042 l 603 1042 b 83 521 317 1042 83 808 b 603 1 83 235 317 1 l 921 1 b 954 35 939 1 954 17 b 921 68 954 53 939 68 z m 818 -240 b 774 -254 810 -257 792 -262 l 665 -190 b 649 -172 657 -186 651 -181 b 643 -156 643 -168 643 -162 l 643 -31 b 676 1 642 -11 657 1 b 708 -29 693 3 707 -11 l 708 -142 l 807 -197 b 818 -240 819 -208 826 -225 z "},"Ĝ":{"ha":1068,"x_min":0,"x_max":0,"o":"m 985 521 b 953 554 985 539 971 554 b 919 521 935 554 919 539 l 919 67 l 601 67 b 149 519 351 67 149 271 b 601 974 149 769 351 972 b 951 972 603 974 951 972 b 985 1006 969 972 985 988 b 951 1039 985 1024 969 1039 l 601 1039 b 83 519 315 1039 83 806 b 601 1 83 235 315 1 l 951 1 b 985 32 969 1 983 14 z m 672 1125 b 661 1171 682 1142 678 1161 l 551 1233 b 528 1239 544 1238 536 1240 b 511 1233 522 1239 517 1236 l 403 1171 b 392 1125 386 1161 382 1142 b 435 1114 400 1110 418 1107 l 532 1169 l 629 1114 b 672 1125 646 1107 664 1110 z "},"Ġ":{"ha":1068,"x_min":0,"x_max":0,"o":"m 985 521 b 953 554 985 539 971 554 b 919 521 935 554 919 539 l 919 67 l 601 67 b 149 519 351 67 149 271 b 601 974 149 769 351 972 b 951 972 603 974 951 972 b 985 1006 969 972 985 988 b 951 1039 985 1024 969 1039 l 601 1039 b 83 519 315 1039 83 806 b 601 1 83 235 315 1 l 951 1 b 985 32 969 1 983 14 z m 533 1110 b 565 1142 551 1110 565 1124 l 565 1215 b 533 1249 565 1233 551 1249 b 500 1215 515 1249 500 1233 l 500 1142 b 533 1110 500 1124 515 1110 z "},"Ĥ":{"ha":1206,"x_min":0,"x_max":0,"o":"m 1122 33 l 1122 1007 b 1090 1040 1122 1025 1108 1040 b 1057 1007 1072 1040 1057 1025 l 1057 283 b 603 554 968 444 797 554 b 149 286 407 554 238 444 l 149 1007 b 117 1040 149 1025 135 1040 b 83 1007 99 1040 83 1025 l 83 33 b 117 1 83 15 99 1 b 149 33 135 1 149 15 l 149 36 b 603 488 149 285 353 488 b 1057 36 851 488 1057 285 l 1057 33 b 1090 1 1057 15 1072 1 b 1122 33 1108 1 1122 15 z m 742 1125 b 731 1171 751 1142 747 1161 l 621 1233 b 597 1239 614 1238 606 1240 b 581 1233 592 1239 586 1236 l 472 1171 b 461 1125 456 1161 451 1142 b 504 1114 469 1110 488 1107 l 601 1169 l 699 1114 b 742 1125 715 1107 733 1110 z "},"Î":{"ha":458,"x_min":0,"x_max":0,"o":"m 229 1 b 261 33 247 1 261 15 l 261 1007 b 229 1040 261 1025 247 1040 b 196 1007 211 1040 196 1025 l 196 33 b 229 1 196 15 211 1 z m 369 1125 b 358 1171 379 1142 375 1161 l 249 1233 b 225 1239 242 1238 233 1240 b 208 1233 219 1239 214 1236 l 100 1171 b 89 1125 83 1161 79 1142 b 132 1114 97 1110 115 1107 l 229 1169 l 326 1114 b 369 1125 343 1107 361 1110 z "},"Ï":{"ha":621,"x_min":0,"x_max":0,"o":"m 311 1 b 343 33 329 1 343 15 l 343 1007 b 311 1040 343 1025 329 1040 b 278 1007 293 1040 278 1025 l 278 33 b 311 1 278 15 293 1 z m 117 1110 b 149 1142 135 1110 149 1124 l 149 1215 b 117 1249 149 1233 135 1249 b 83 1215 99 1249 83 1233 l 83 1142 b 117 1110 83 1124 99 1110 z m 506 1110 b 538 1142 524 1110 538 1124 l 538 1215 b 506 1249 538 1233 524 1249 b 472 1215 488 1249 472 1233 l 472 1142 b 506 1110 472 1124 488 1110 z "},"İ":{"ha":232,"x_min":0,"x_max":0,"o":"m 117 1 b 149 33 135 1 149 15 l 149 1007 b 117 1040 149 1025 135 1040 b 83 1007 99 1040 83 1025 l 83 33 b 117 1 83 15 99 1 z m 117 1110 b 149 1142 135 1110 149 1124 l 149 1215 b 117 1249 149 1233 135 1249 b 83 1215 99 1249 83 1233 l 83 1142 b 117 1110 83 1124 99 1110 z "},"Ī":{"ha":653,"x_min":0,"x_max":0,"o":"m 326 1 b 358 33 344 1 358 15 l 358 1007 b 326 1040 358 1025 344 1040 b 293 1007 308 1040 293 1025 l 293 33 b 326 1 293 15 308 1 z m 569 1179 b 538 1213 569 1197 556 1211 l 118 1213 b 83 1179 100 1213 85 1199 b 117 1146 83 1163 99 1146 l 539 1146 b 569 1179 556 1146 569 1163 z "},"Į":{"ha":347,"x_min":0,"x_max":0,"o":"m 118 1 b 150 33 136 1 150 15 l 150 1007 b 118 1040 150 1025 136 1040 b 85 1007 100 1040 85 1025 l 85 33 b 118 1 85 15 100 1 z m 260 -240 b 249 -197 268 -225 261 -208 l 150 -142 l 150 -29 b 118 1 149 -11 135 3 b 85 -31 99 1 83 -11 l 85 -156 b 90 -172 85 -162 85 -168 b 107 -190 93 -181 99 -186 l 215 -254 b 260 -240 233 -262 251 -257 z "},"Ĩ":{"ha":574,"x_min":0,"x_max":0,"o":"m 288 1 b 319 33 306 1 319 15 l 319 1007 b 288 1040 319 1025 306 1040 b 254 1007 269 1040 254 1025 l 254 33 b 288 1 254 15 269 1 z m 347 1110 b 354 1111 350 1110 353 1111 l 360 1114 l 471 1178 b 486 1224 489 1188 494 1207 b 439 1235 476 1239 457 1244 l 343 1179 l 249 1233 b 225 1239 242 1238 233 1240 b 208 1233 219 1239 214 1236 l 100 1171 b 89 1125 83 1161 79 1142 b 132 1114 97 1110 115 1107 l 229 1169 l 326 1114 l 331 1111 b 347 1110 336 1110 342 1110 z "},"Ĵ":{"ha":1011,"x_min":0,"x_max":0,"o":"m 117 1 l 413 1 b 926 515 696 1 926 232 l 928 1008 b 896 1040 928 1026 914 1040 b 863 1008 878 1040 863 1026 l 861 515 b 413 67 861 268 660 67 l 117 67 b 83 33 99 67 83 51 b 117 1 83 17 99 1 z m 646 1125 b 635 1171 656 1142 651 1161 l 525 1233 b 501 1239 518 1238 510 1240 b 485 1233 496 1239 490 1236 l 376 1171 b 365 1125 360 1161 356 1142 b 408 1114 374 1110 392 1107 l 506 1169 l 603 1114 b 646 1125 619 1107 638 1110 z "},"Ľ":{"ha":1011,"x_min":0,"x_max":0,"o":"m 894 1 b 928 33 913 1 928 17 b 894 67 928 51 913 67 l 599 67 b 150 515 351 67 150 268 l 149 1008 b 115 1040 149 1026 133 1040 b 83 1008 97 1040 83 1026 l 85 515 b 599 1 85 232 315 1 z m 672 1222 b 629 1233 664 1238 646 1240 l 532 1178 l 435 1233 b 392 1222 418 1240 400 1238 b 403 1176 382 1206 386 1186 l 511 1114 b 528 1108 517 1111 522 1108 b 551 1114 536 1107 544 1110 l 661 1176 b 672 1222 678 1186 682 1206 z "},"Ň":{"ha":1204,"x_min":0,"x_max":0,"o":"m 1121 522 b 603 1040 1121 807 888 1040 b 85 522 317 1040 85 807 l 83 35 b 117 1 83 17 97 1 b 149 35 135 1 149 17 l 150 522 b 603 974 150 771 353 974 b 1054 522 851 974 1054 771 l 1056 33 b 1088 1 1056 15 1069 1 b 1121 33 1106 1 1121 15 z m 743 1222 b 700 1233 735 1238 717 1240 l 603 1178 l 506 1233 b 463 1222 489 1240 471 1238 b 474 1176 453 1206 457 1186 l 582 1114 b 599 1108 588 1111 593 1108 b 622 1114 607 1107 615 1110 l 732 1176 b 743 1222 749 1186 753 1206 z "},"Ñ":{"ha":1204,"x_min":0,"x_max":0,"o":"m 1121 522 b 603 1040 1121 807 888 1040 b 85 522 317 1040 85 807 l 83 35 b 117 1 83 17 97 1 b 149 35 135 1 149 17 l 150 522 b 603 974 150 771 353 974 b 1054 522 851 974 1054 771 l 1056 33 b 1088 1 1056 15 1069 1 b 1121 33 1106 1 1121 15 z m 664 1110 b 671 1111 667 1110 669 1111 l 676 1114 l 788 1178 b 803 1224 806 1188 811 1207 b 756 1235 793 1239 774 1244 l 660 1179 l 565 1233 b 542 1239 558 1238 550 1240 b 525 1233 536 1239 531 1236 l 417 1171 b 406 1125 400 1161 396 1142 b 449 1114 414 1110 432 1107 l 546 1169 l 643 1114 l 647 1111 b 664 1110 653 1110 658 1110 z "},"Ô":{"ha":1206,"x_min":0,"x_max":0,"o":"m 603 1 b 1122 521 889 1 1122 235 b 603 1040 1122 807 889 1040 b 83 521 317 1040 83 807 b 603 1 83 235 317 1 z m 603 975 b 1057 521 853 975 1057 771 b 603 67 1057 271 853 67 b 149 521 353 67 149 271 b 603 975 149 771 353 975 z m 743 1125 b 732 1171 753 1142 749 1161 l 622 1233 b 599 1239 615 1238 607 1240 b 582 1233 593 1239 588 1236 l 474 1171 b 463 1125 457 1161 453 1142 b 506 1114 471 1110 489 1107 l 603 1169 l 700 1114 b 743 1125 717 1107 735 1110 z "},"Ō":{"ha":1206,"x_min":0,"x_max":0,"o":"m 603 1 b 1122 521 889 1 1122 235 b 603 1040 1122 807 889 1040 b 83 521 317 1040 83 807 b 603 1 83 235 317 1 z m 603 975 b 1057 521 853 975 1057 771 b 603 67 1057 271 853 67 b 149 521 353 67 149 271 b 603 975 149 771 353 975 z m 846 1179 b 814 1213 846 1197 832 1211 l 394 1213 b 360 1179 376 1213 361 1199 b 393 1146 360 1163 375 1146 l 815 1146 b 846 1179 832 1146 846 1163 z "},"Ø":{"ha":1206,"x_min":0,"x_max":0,"o":"m 172 8 b 218 13 186 -3 206 -1 l 294 103 b 603 1 381 39 488 1 b 1122 521 889 1 1122 235 b 960 897 1122 668 1060 803 l 1036 988 b 1033 1033 1049 1001 1047 1022 b 986 1029 1021 1046 999 1043 l 910 939 b 603 1040 824 1003 718 1040 b 83 521 317 1040 83 807 b 243 146 83 374 144 240 l 167 54 b 172 8 157 40 160 21 z m 603 67 b 336 153 503 67 411 99 l 918 846 b 1057 521 1003 764 1057 649 b 603 67 1057 271 853 67 z m 603 975 b 868 889 701 975 793 943 l 285 196 b 149 521 201 279 149 393 b 603 975 149 771 353 975 z "},"Ǿ":{"ha":1206,"x_min":0,"x_max":0,"o":"m 603 1 b 1122 521 889 1 1122 235 b 960 897 1122 668 1060 803 l 1036 988 b 1033 1033 1049 1001 1047 1022 b 986 1029 1021 1046 999 1043 l 910 939 b 603 1040 824 1003 718 1040 b 83 521 317 1040 83 807 b 243 146 83 374 144 240 l 167 54 b 172 8 157 40 160 21 b 218 13 186 -3 206 -1 l 294 103 b 603 1 381 39 488 1 z m 603 67 b 336 153 503 67 411 99 l 918 846 b 1057 521 1003 764 1057 649 b 603 67 1057 271 853 67 z m 603 975 b 868 889 701 975 793 943 l 285 196 b 149 521 201 279 149 393 b 603 975 149 771 353 975 z m 518 1125 b 561 1114 526 1110 544 1107 l 672 1178 b 688 1224 690 1188 696 1207 b 640 1235 678 1239 658 1244 l 529 1171 b 518 1125 513 1161 508 1142 z "},"Õ":{"ha":1206,"x_min":0,"x_max":0,"o":"m 603 1 b 1122 521 889 1 1122 235 b 603 1040 1122 807 889 1040 b 83 521 317 1040 83 807 b 603 1 83 235 317 1 z m 603 975 b 1057 521 853 975 1057 771 b 603 67 1057 271 853 67 b 149 521 353 67 149 271 b 603 975 149 771 353 975 z m 663 1110 b 669 1111 665 1110 668 1111 l 675 1114 l 786 1178 b 801 1224 804 1188 810 1207 b 754 1235 792 1239 772 1244 l 658 1179 l 564 1233 b 540 1239 557 1238 549 1240 b 524 1233 535 1239 529 1236 l 415 1171 b 404 1125 399 1161 394 1142 b 447 1114 413 1110 431 1107 l 544 1169 l 642 1114 l 646 1111 b 663 1110 651 1110 657 1110 z "},"Ř":{"ha":1011,"x_min":0,"x_max":0,"o":"m 894 1040 l 599 1040 b 85 526 315 1040 85 810 l 83 33 b 115 1 83 15 97 1 b 149 33 133 1 149 15 l 150 526 b 599 975 150 774 351 975 l 894 975 b 928 1008 913 975 928 990 b 894 1040 928 1025 913 1040 z m 643 1222 b 600 1233 635 1238 617 1240 l 503 1178 l 406 1233 b 363 1222 389 1240 371 1238 b 374 1176 353 1206 357 1186 l 482 1114 b 499 1108 488 1111 493 1108 b 522 1114 507 1107 515 1110 l 632 1176 b 643 1222 649 1186 653 1206 z "},"Š":{"ha":983,"x_min":0,"x_max":0,"o":"m 361 486 l 622 486 b 833 275 736 479 833 392 b 622 64 833 154 731 64 l 117 64 b 83 31 99 64 83 49 b 117 -1 83 14 99 -1 l 622 -1 b 899 275 775 -1 899 122 b 819 468 899 347 871 417 b 622 551 800 489 736 549 l 361 551 b 150 763 247 558 150 646 b 361 974 150 883 253 974 l 867 974 b 900 1007 885 974 900 989 b 867 1039 900 1024 885 1039 l 361 1039 b 85 763 208 1039 85 915 b 164 569 85 690 113 621 b 361 486 183 549 247 489 z m 624 1222 b 581 1233 615 1238 597 1240 l 483 1178 l 386 1233 b 343 1222 369 1240 351 1238 b 354 1176 333 1206 338 1186 l 463 1114 b 479 1108 468 1111 474 1108 b 503 1114 488 1107 496 1110 l 613 1176 b 624 1222 629 1186 633 1206 z "},"Ŝ":{"ha":983,"x_min":0,"x_max":0,"o":"m 361 486 l 622 486 b 833 275 736 479 833 392 b 622 64 833 154 731 64 l 117 64 b 83 31 99 64 83 49 b 117 -1 83 14 99 -1 l 622 -1 b 899 275 775 -1 899 122 b 819 468 899 347 871 417 b 622 551 800 489 736 549 l 361 551 b 150 763 247 558 150 646 b 361 974 150 883 253 974 l 867 974 b 900 1007 885 974 900 989 b 867 1039 900 1024 885 1039 l 361 1039 b 85 763 208 1039 85 915 b 164 569 85 690 113 621 b 361 486 183 549 247 489 z m 624 1125 b 613 1171 633 1142 629 1161 l 503 1233 b 479 1239 496 1238 488 1240 b 463 1233 474 1239 468 1236 l 354 1171 b 343 1125 338 1161 333 1142 b 386 1114 351 1110 369 1107 l 483 1169 l 581 1114 b 624 1125 597 1107 615 1110 z "},"Ť":{"ha":1204,"x_min":0,"x_max":0,"o":"m 1121 522 b 597 1040 1121 803 890 1036 b 85 522 314 1038 85 806 l 83 522 b 117 489 83 504 97 489 b 149 522 135 489 149 504 l 150 522 b 569 972 150 760 335 954 l 569 33 b 603 1 569 15 585 1 b 635 33 621 1 635 15 l 635 972 b 1054 522 868 956 1054 760 l 1056 521 b 1088 489 1056 503 1069 489 b 1121 521 1106 489 1121 503 z m 739 1222 b 696 1233 731 1238 713 1240 l 599 1178 l 501 1233 b 458 1222 485 1240 467 1238 b 469 1176 449 1206 453 1186 l 578 1114 b 594 1108 583 1111 589 1108 b 618 1114 603 1107 611 1110 l 728 1176 b 739 1222 744 1186 749 1206 z "},"Û":{"ha":1204,"x_min":0,"x_max":0,"o":"m 83 518 b 601 0 83 233 317 0 b 1119 518 888 0 1119 233 l 1121 1006 b 1088 1039 1121 1024 1107 1039 b 1056 1006 1069 1039 1056 1024 l 1054 518 b 601 67 1054 269 851 67 b 150 518 353 67 150 269 l 149 1007 b 117 1039 149 1025 135 1039 b 83 1007 99 1039 83 1025 z m 740 1125 b 729 1171 750 1142 746 1161 l 619 1233 b 596 1239 613 1238 604 1240 b 579 1233 590 1239 585 1236 l 471 1171 b 460 1125 454 1161 450 1142 b 503 1114 468 1110 486 1107 l 600 1169 l 697 1114 b 740 1125 714 1107 732 1110 z "},"Ū":{"ha":1204,"x_min":0,"x_max":0,"o":"m 83 518 b 601 0 83 233 317 0 b 1119 518 888 0 1119 233 l 1121 1006 b 1088 1039 1121 1024 1107 1039 b 1056 1006 1069 1039 1056 1024 l 1054 518 b 601 67 1054 269 851 67 b 150 518 353 67 150 269 l 149 1007 b 117 1039 149 1025 135 1039 b 83 1007 99 1039 83 1025 z m 843 1179 b 811 1213 843 1197 829 1211 l 392 1213 b 357 1179 374 1213 358 1199 b 390 1146 357 1163 372 1146 l 813 1146 b 843 1179 829 1146 843 1163 z "},"Ũ":{"ha":1204,"x_min":0,"x_max":0,"o":"m 83 518 b 601 0 83 233 317 0 b 1119 518 888 0 1119 233 l 1121 1006 b 1088 1039 1121 1024 1107 1039 b 1056 1006 1069 1039 1056 1024 l 1054 518 b 601 67 1054 269 851 67 b 150 518 353 67 150 269 l 149 1007 b 117 1039 149 1025 135 1039 b 83 1007 99 1039 83 1025 z m 661 1110 b 668 1111 664 1110 667 1111 l 674 1114 l 785 1178 b 800 1224 803 1188 808 1207 b 753 1235 790 1239 771 1244 l 657 1179 l 563 1233 b 539 1239 556 1238 547 1240 b 522 1233 533 1239 528 1236 l 414 1171 b 403 1125 397 1161 393 1142 b 446 1114 411 1110 429 1107 l 543 1169 l 640 1114 l 644 1111 b 661 1110 650 1110 656 1110 z "},"V":{"ha":1068,"x_min":0,"x_max":0,"o":"m 985 1007 b 951 1039 985 1025 969 1039 b 919 1007 933 1039 919 1025 l 919 519 b 467 67 919 271 717 67 l 149 67 l 149 1006 b 115 1039 149 1024 133 1039 b 83 1006 97 1039 83 1024 l 83 32 b 117 1 85 14 99 1 l 467 1 b 985 519 753 1 985 235 z "},"Ų":{"ha":1204,"x_min":0,"x_max":0,"o":"m 83 518 b 601 0 83 233 317 0 b 1119 518 888 0 1119 233 l 1121 1006 b 1088 1039 1121 1024 1107 1039 b 1056 1006 1069 1039 1056 1024 l 1054 518 b 601 67 1054 269 851 67 b 150 518 353 67 150 269 l 149 1007 b 117 1039 149 1025 135 1039 b 83 1007 99 1039 83 1025 z m 744 -243 b 700 -257 736 -260 718 -265 l 592 -193 b 575 -175 583 -189 578 -183 b 569 -158 569 -171 569 -165 l 569 -33 b 603 -1 568 -14 583 -1 b 635 -32 619 0 633 -14 l 635 -144 l 733 -200 b 744 -243 746 -211 753 -228 z "},"Ŵ":{"ha":1200,"x_min":0,"x_max":0,"o":"m 1117 1007 b 1083 1040 1117 1025 1101 1040 b 1051 1007 1065 1040 1051 1025 l 1051 517 b 635 68 1051 281 867 85 l 635 519 b 601 551 635 538 619 551 b 569 519 583 551 569 538 l 569 68 b 149 518 335 83 149 279 l 149 1007 b 117 1040 149 1025 135 1040 b 83 1007 99 1040 83 1025 l 83 518 b 600 1 83 233 315 1 b 1117 517 885 1 1117 232 z m 742 1125 b 731 1171 751 1142 747 1161 l 621 1233 b 597 1239 614 1238 606 1240 b 581 1233 592 1239 586 1236 l 472 1171 b 461 1125 456 1161 451 1142 b 504 1114 469 1110 488 1107 l 601 1169 l 699 1114 b 742 1125 715 1107 733 1110 z "},"Ŷ":{"ha":1204,"x_min":0,"x_max":0,"o":"m 1119 1004 b 1088 1039 1121 1024 1107 1039 b 1054 1004 1069 1039 1056 1024 b 601 553 1054 756 851 553 b 150 1004 353 553 150 756 b 117 1039 149 1025 135 1039 b 83 1004 99 1039 83 1025 b 568 488 83 731 299 504 l 568 33 b 601 1 568 15 583 1 b 633 33 619 1 633 15 l 633 486 b 1119 1004 904 503 1119 729 z m 742 1125 b 731 1171 751 1142 747 1161 l 621 1233 b 597 1239 614 1238 606 1240 b 581 1233 592 1239 586 1236 l 472 1171 b 461 1125 456 1161 451 1142 b 504 1114 469 1110 488 1107 l 601 1169 l 699 1114 b 742 1125 715 1107 733 1110 z "},"Ž":{"ha":983,"x_min":0,"x_max":0,"o":"m 361 549 b 164 465 247 546 183 486 b 85 272 113 414 85 344 b 361 -4 85 119 208 -4 l 867 -4 b 900 28 885 -4 900 11 b 867 61 900 46 885 61 l 361 61 b 150 272 253 61 150 151 b 360 483 150 388 246 475 l 622 483 b 819 567 736 486 800 546 b 899 760 871 618 899 688 b 622 1036 899 913 775 1036 l 117 1036 b 83 1004 99 1036 83 1021 b 117 971 83 986 99 971 l 622 971 b 833 760 731 971 833 881 b 622 549 833 643 736 556 z m 628 1222 b 585 1233 619 1238 601 1240 l 488 1178 l 390 1233 b 347 1222 374 1240 356 1238 b 358 1176 338 1206 342 1186 l 467 1114 b 483 1108 472 1111 478 1108 b 507 1114 492 1107 500 1110 l 617 1176 b 628 1222 633 1186 638 1206 z "},"Ż":{"ha":983,"x_min":0,"x_max":0,"o":"m 361 549 b 164 465 247 546 183 486 b 85 272 113 414 85 344 b 361 -4 85 119 208 -4 l 867 -4 b 900 28 885 -4 900 11 b 867 61 900 46 885 61 l 361 61 b 150 272 253 61 150 151 b 360 483 150 388 246 475 l 622 483 b 819 567 736 486 800 546 b 899 760 871 618 899 688 b 622 1036 899 913 775 1036 l 117 1036 b 83 1004 99 1036 83 1021 b 117 971 83 986 99 971 l 622 971 b 833 760 731 971 833 881 b 622 549 833 643 736 556 z m 489 1110 b 521 1142 507 1110 521 1124 l 521 1215 b 489 1249 521 1233 507 1249 b 456 1215 471 1249 456 1233 l 456 1142 b 489 1110 456 1124 471 1110 z "},"#":{"ha":1101,"x_min":0,"x_max":0,"o":"m 1018 311 b 986 344 1018 329 1004 344 l 871 344 l 871 696 l 986 697 b 1018 729 1004 697 1017 711 b 986 763 1018 747 1004 763 l 871 763 l 871 1007 b 839 1040 871 1025 857 1040 b 806 1007 821 1040 806 1025 l 806 763 l 294 764 l 294 1007 b 263 1040 294 1025 281 1040 b 229 1007 244 1040 229 1025 l 229 764 l 117 764 b 83 731 99 764 83 747 b 117 696 85 711 99 696 l 229 696 l 229 346 l 117 346 b 83 313 99 346 83 329 b 117 278 85 293 99 278 l 229 278 l 229 33 b 263 1 229 15 244 1 b 294 33 281 1 294 15 l 294 278 l 806 278 l 806 33 b 839 1 806 15 821 1 b 871 33 857 1 871 15 l 871 278 l 986 279 b 1018 311 1004 279 1017 293 z m 294 346 l 294 696 l 806 696 l 806 344 z "},"ß":{"ha":985,"x_min":0,"x_max":0,"o":"m 149 942 b 83 775 110 897 86 839 l 83 -106 b 117 -137 83 -124 99 -137 b 149 -106 135 -137 149 -124 l 149 772 b 360 975 153 885 246 975 l 625 975 b 836 764 742 975 836 881 b 625 554 836 644 732 554 l 625 489 b 836 278 739 482 836 394 b 625 67 836 157 733 67 l 363 67 l 361 1 l 625 1 b 901 278 778 1 901 125 b 822 471 901 350 874 419 b 757 521 803 492 781 508 b 822 571 781 533 803 551 b 901 764 874 622 901 692 b 625 1040 901 917 778 1040 l 360 1040 b 149 942 275 1040 199 1001 z "},"\"":{"ha":436,"x_min":0,"x_max":0,"o":"m 117 832 b 149 864 135 832 149 846 l 149 938 b 117 971 149 956 135 971 b 83 938 99 971 83 956 l 83 864 b 117 832 83 846 99 832 z m 321 832 b 353 864 339 832 353 846 l 353 938 b 321 971 353 956 339 971 b 288 938 303 971 288 956 l 288 864 b 321 832 288 846 303 832 z "},"'":{"ha":232,"x_min":0,"x_max":0,"o":"m 117 832 b 149 864 135 832 149 846 l 149 938 b 117 971 149 956 135 971 b 83 938 99 971 83 956 l 83 864 b 117 832 83 846 99 832 z "},"a":{"ha":1204,"x_min":0,"x_max":0,"o":"m 1121 522 b 603 1040 1121 807 888 1040 b 85 522 317 1040 85 807 l 83 35 b 117 1 83 17 97 1 b 149 35 135 1 149 17 l 150 488 l 1054 488 l 1056 33 b 1088 1 1056 15 1069 1 b 1121 33 1106 1 1121 15 z m 151 553 b 603 974 167 788 363 974 b 1053 553 840 974 1036 788 z "},"â":{"ha":1204,"x_min":0,"x_max":0,"o":"m 1121 522 b 603 1040 1121 807 888 1040 b 85 522 317 1040 85 807 l 83 35 b 117 1 83 17 97 1 b 149 35 135 1 149 17 l 150 488 l 1054 488 l 1056 33 b 1088 1 1056 15 1069 1 b 1121 33 1106 1 1121 15 z m 151 553 b 603 974 167 788 363 974 b 1053 553 840 974 1036 788 z m 744 708 b 701 697 736 693 718 690 l 604 753 l 507 697 b 464 708 490 690 472 693 b 475 754 454 725 458 744 l 583 817 b 600 822 589 819 594 822 b 624 817 608 824 617 821 l 733 754 b 744 708 750 744 754 725 z "},"ä":{"ha":1204,"x_min":0,"x_max":0,"o":"m 1121 522 b 603 1040 1121 807 888 1040 b 85 522 317 1040 85 807 l 83 35 b 117 1 83 17 97 1 b 149 35 135 1 149 17 l 150 488 l 1054 488 l 1056 33 b 1088 1 1056 15 1069 1 b 1121 33 1106 1 1121 15 z m 151 553 b 603 974 167 788 363 974 b 1053 553 840 974 1036 788 z m 410 693 b 376 725 392 693 376 707 l 376 799 b 410 832 376 817 392 832 b 442 799 428 832 442 817 l 442 725 b 410 693 442 707 428 693 z m 799 693 b 765 725 781 693 765 707 l 765 799 b 799 832 765 817 781 832 b 831 799 817 832 831 817 l 831 725 b 799 693 831 707 817 693 z "},"à":{"ha":1204,"x_min":0,"x_max":0,"o":"m 1121 522 b 603 1040 1121 807 888 1040 b 85 522 317 1040 85 807 l 83 35 b 117 1 83 17 97 1 b 149 35 135 1 149 17 l 150 488 l 1054 488 l 1056 33 b 1088 1 1056 15 1069 1 b 1121 33 1106 1 1121 15 z m 151 553 b 603 974 167 788 363 974 b 1053 553 840 974 1036 788 z m 688 708 b 644 697 679 693 661 690 l 533 761 b 518 807 515 771 510 790 b 565 818 528 822 547 828 l 676 754 b 688 708 693 744 697 725 z "},"ā":{"ha":1204,"x_min":0,"x_max":0,"o":"m 1121 522 b 603 1040 1121 807 888 1040 b 85 522 317 1040 85 807 l 83 35 b 117 1 83 17 97 1 b 149 35 135 1 149 17 l 150 488 l 1054 488 l 1056 33 b 1088 1 1056 15 1069 1 b 1121 33 1106 1 1121 15 z m 151 553 b 603 974 167 788 363 974 b 1053 553 840 974 1036 788 z m 847 728 b 817 694 847 711 833 694 l 394 694 b 361 728 376 694 361 711 b 396 761 363 747 378 761 l 815 761 b 847 728 833 760 847 746 z "},"ą":{"ha":1204,"x_min":0,"x_max":0,"o":"m 1121 522 b 603 1040 1121 807 888 1040 b 85 522 317 1040 85 807 l 83 35 b 117 1 83 17 97 1 b 149 35 135 1 149 17 l 150 488 l 1054 488 l 1056 33 b 1088 1 1056 15 1069 1 b 1121 33 1106 1 1121 15 z m 151 553 b 603 974 167 788 363 974 b 1053 553 840 974 1036 788 z m 1113 -236 b 1068 -250 1104 -253 1086 -258 l 960 -186 b 943 -168 951 -182 946 -176 b 938 -151 938 -164 938 -158 l 938 -26 b 971 6 936 -7 951 6 b 1003 -25 988 7 1001 -7 l 1003 -137 l 1101 -193 b 1113 -236 1114 -204 1121 -221 z "},"ã":{"ha":1204,"x_min":0,"x_max":0,"o":"m 1121 522 b 603 1040 1121 807 888 1040 b 85 522 317 1040 85 807 l 83 35 b 117 1 83 17 97 1 b 149 35 135 1 149 17 l 150 488 l 1054 488 l 1056 33 b 1088 1 1056 15 1069 1 b 1121 33 1106 1 1121 15 z m 151 553 b 603 974 167 788 363 974 b 1053 553 840 974 1036 788 z m 664 696 b 647 697 658 696 653 696 l 643 700 l 546 756 l 449 700 b 406 711 432 693 414 696 b 417 757 396 728 400 747 l 525 819 b 542 825 531 822 536 825 b 565 819 550 826 558 824 l 660 765 l 756 821 b 803 810 774 831 793 825 b 788 764 811 793 806 774 l 676 700 l 671 697 b 664 696 669 697 667 696 z "},"á":{"ha":1204,"x_min":0,"x_max":0,"o":"m 1121 522 b 603 1040 1121 807 888 1040 b 85 522 317 1040 85 807 l 83 35 b 117 1 83 17 97 1 b 149 35 135 1 149 17 l 150 488 l 1054 488 l 1056 33 b 1088 1 1056 15 1069 1 b 1121 33 1106 1 1121 15 z m 151 553 b 603 974 167 788 363 974 b 1053 553 840 974 1036 788 z m 519 711 b 531 757 510 728 514 747 l 642 821 b 689 810 660 831 679 825 b 674 764 697 793 692 774 l 563 700 b 519 711 546 693 528 696 z "},"b":{"ha":1038,"x_min":0,"x_max":0,"o":"m 117 68 b 83 35 99 68 83 53 b 117 1 83 17 99 1 l 435 1 b 954 521 721 1 954 235 b 435 1042 954 808 721 1042 l 117 1042 b 83 1008 99 1042 83 1026 b 117 975 83 990 99 975 l 435 975 b 888 553 674 975 871 789 l 297 553 b 264 519 279 553 264 538 b 297 486 264 501 279 486 l 888 486 b 435 67 869 253 674 68 b 117 68 433 67 117 68 z "},"c":{"ha":1068,"x_min":0,"x_max":0,"o":"m 601 1 l 951 1 b 985 33 969 1 985 15 b 951 67 985 51 969 67 l 601 67 b 149 519 351 67 149 271 b 601 974 149 769 351 972 b 951 972 603 974 951 972 b 985 1006 969 972 985 988 b 951 1039 985 1024 969 1039 l 601 1039 b 83 519 315 1039 83 806 b 601 1 83 235 315 1 z "},"ć":{"ha":1068,"x_min":0,"x_max":0,"o":"m 601 1 l 951 1 b 985 33 969 1 985 15 b 951 67 985 51 969 67 l 601 67 b 149 519 351 67 149 271 b 601 974 149 769 351 972 b 951 972 603 974 951 972 b 985 1006 969 972 985 988 b 951 1039 985 1024 969 1039 l 601 1039 b 83 519 315 1039 83 806 b 601 1 83 235 315 1 z m 571 711 b 582 757 561 728 565 747 l 693 821 b 740 810 711 831 731 825 b 725 764 749 793 743 774 l 614 700 b 571 711 597 693 579 696 z "},"č":{"ha":1068,"x_min":0,"x_max":0,"o":"m 601 1 l 951 1 b 985 33 969 1 985 15 b 951 67 985 51 969 67 l 601 67 b 149 519 351 67 149 271 b 601 974 149 769 351 972 b 951 972 603 974 951 972 b 985 1006 969 972 985 988 b 951 1039 985 1024 969 1039 l 601 1039 b 83 519 315 1039 83 806 b 601 1 83 235 315 1 z m 822 808 b 811 763 832 792 828 772 l 701 700 b 678 694 694 696 686 693 b 661 700 672 694 667 697 l 553 763 b 542 808 536 772 532 792 b 585 819 550 824 568 826 l 682 764 l 779 819 b 822 808 796 826 814 824 z "},"ç":{"ha":1068,"x_min":0,"x_max":0,"o":"m 601 1 l 951 1 b 985 33 969 1 985 15 b 951 67 985 51 969 67 l 601 67 b 149 519 351 67 149 271 b 601 974 149 769 351 972 b 951 972 603 974 951 972 b 985 1006 969 972 985 988 b 951 1039 985 1024 969 1039 l 601 1039 b 83 519 315 1039 83 806 b 601 1 83 235 315 1 z m 446 -242 b 457 -199 438 -226 444 -210 l 556 -143 l 556 -31 b 588 0 557 -12 571 1 b 621 -32 607 0 622 -12 l 621 -157 b 615 -174 621 -164 621 -169 b 599 -192 613 -182 607 -187 l 490 -256 b 446 -242 472 -264 454 -258 z "},"ĉ":{"ha":1068,"x_min":0,"x_max":0,"o":"m 601 1 l 951 1 b 985 33 969 1 985 15 b 951 67 985 51 969 67 l 601 67 b 149 519 351 67 149 271 b 601 974 149 769 351 972 b 951 972 603 974 951 972 b 985 1006 969 972 985 988 b 951 1039 985 1024 969 1039 l 601 1039 b 83 519 315 1039 83 806 b 601 1 83 235 315 1 z m 808 711 b 765 700 800 696 782 693 l 668 756 l 571 700 b 528 711 554 693 536 696 b 539 757 518 728 522 747 l 647 819 b 664 825 653 822 658 825 b 688 819 672 826 681 824 l 797 757 b 808 711 814 747 818 728 z "},"ċ":{"ha":1068,"x_min":0,"x_max":0,"o":"m 601 1 l 951 1 b 985 33 969 1 985 15 b 951 67 985 51 969 67 l 601 67 b 149 519 351 67 149 271 b 601 974 149 769 351 972 b 951 972 603 974 951 972 b 985 1006 969 972 985 988 b 951 1039 985 1024 969 1039 l 601 1039 b 83 519 315 1039 83 806 b 601 1 83 235 315 1 z m 669 696 b 636 728 651 696 636 710 l 636 801 b 669 835 636 819 651 835 b 701 801 688 835 701 819 l 701 728 b 669 696 701 710 688 696 z "},"d":{"ha":1068,"x_min":0,"x_max":0,"o":"m 467 1039 l 117 1039 b 83 1007 99 1039 83 1025 b 117 974 83 989 99 974 l 467 974 b 919 521 717 974 919 769 b 467 67 919 271 717 68 b 117 68 465 67 117 68 b 83 35 99 68 83 53 b 117 1 83 17 99 1 l 467 1 b 985 521 753 1 985 235 b 467 1039 985 806 753 1039 z "},"ê":{"ha":1038,"x_min":0,"x_max":0,"o":"m 954 521 b 922 553 954 539 940 553 l 117 553 b 83 521 99 553 83 539 b 117 488 83 503 99 488 l 922 488 b 954 521 940 488 954 503 z m 954 1010 b 922 1042 954 1028 940 1042 l 117 1042 b 83 1010 99 1042 83 1028 b 117 976 83 992 99 976 l 922 976 b 954 1010 940 976 954 992 z m 954 33 b 922 65 954 51 940 65 l 117 65 b 83 33 99 65 83 51 b 117 0 83 15 99 0 l 922 0 b 954 33 940 0 954 15 z m 657 714 b 614 703 649 699 631 696 l 517 758 l 419 703 b 376 714 403 696 385 699 b 388 760 367 731 371 750 l 496 822 b 513 828 501 825 507 828 b 536 822 521 829 529 826 l 646 760 b 657 714 663 750 667 731 z "},"ě":{"ha":1038,"x_min":0,"x_max":0,"o":"m 954 521 b 922 553 954 539 940 553 l 117 553 b 83 521 99 553 83 539 b 117 488 83 503 99 488 l 922 488 b 954 521 940 488 954 503 z m 954 1010 b 922 1042 954 1028 940 1042 l 117 1042 b 83 1010 99 1042 83 1028 b 117 976 83 992 99 976 l 922 976 b 954 1010 940 976 954 992 z m 954 33 b 922 65 954 51 940 65 l 117 65 b 83 33 99 65 83 51 b 117 0 83 15 99 0 l 922 0 b 954 33 940 0 954 15 z m 657 808 b 646 763 667 792 663 772 l 536 700 b 513 694 529 696 521 693 b 496 700 507 694 501 697 l 388 763 b 376 808 371 772 367 792 b 419 819 385 824 403 826 l 517 764 l 614 819 b 657 808 631 826 649 824 z "},"ė":{"ha":1038,"x_min":0,"x_max":0,"o":"m 954 521 b 922 553 954 539 940 553 l 117 553 b 83 521 99 553 83 539 b 117 488 83 503 99 488 l 922 488 b 954 521 940 488 954 503 z m 954 1010 b 922 1042 954 1028 940 1042 l 117 1042 b 83 1010 99 1042 83 1028 b 117 976 83 992 99 976 l 922 976 b 954 1010 940 976 954 992 z m 954 33 b 922 65 954 51 940 65 l 117 65 b 83 33 99 65 83 51 b 117 0 83 15 99 0 l 922 0 b 954 33 940 0 954 15 z m 518 694 b 485 726 500 694 485 708 l 485 800 b 518 833 485 818 500 833 b 550 800 536 833 550 818 l 550 726 b 518 694 550 708 536 694 z "},"ē":{"ha":1038,"x_min":0,"x_max":0,"o":"m 954 521 b 922 553 954 539 940 553 l 117 553 b 83 521 99 553 83 539 b 117 488 83 503 99 488 l 922 488 b 954 521 940 488 954 503 z m 954 1010 b 922 1042 954 1028 940 1042 l 117 1042 b 83 1010 99 1042 83 1028 b 117 976 83 992 99 976 l 922 976 b 954 1010 940 976 954 992 z m 954 33 b 922 65 954 51 940 65 l 117 65 b 83 33 99 65 83 51 b 117 0 83 15 99 0 l 922 0 b 954 33 940 0 954 15 z m 761 728 b 731 694 761 711 747 694 l 308 694 b 275 728 290 694 275 711 b 310 761 276 747 292 761 l 729 761 b 761 728 747 760 761 746 z "},"ę":{"ha":1038,"x_min":0,"x_max":0,"o":"m 954 521 b 922 553 954 539 940 553 l 117 553 b 83 521 99 553 83 539 b 117 488 83 503 99 488 l 922 488 b 954 521 940 488 954 503 z m 954 1010 b 922 1042 954 1028 940 1042 l 117 1042 b 83 1010 99 1042 83 1028 b 117 976 83 992 99 976 l 922 976 b 954 1010 940 976 954 992 z m 954 33 b 922 65 954 51 940 65 l 117 65 b 83 33 99 65 83 51 b 117 0 83 15 99 0 l 922 0 b 954 33 940 0 954 15 z m 668 -242 b 624 -256 660 -258 642 -264 l 515 -192 b 499 -174 507 -187 501 -182 b 493 -157 493 -169 493 -164 l 493 -32 b 526 0 492 -12 507 0 b 558 -31 543 1 557 -12 l 558 -143 l 657 -199 b 668 -242 669 -210 676 -226 z "},"ĥ":{"ha":1206,"x_min":0,"x_max":0,"o":"m 1090 1 b 1122 33 1108 1 1122 15 b 603 554 1122 318 888 554 b 149 285 407 554 236 444 l 149 1007 b 117 1040 149 1025 135 1040 b 83 1007 99 1040 83 1025 l 83 33 b 117 0 83 15 97 0 b 149 33 135 0 149 15 l 149 36 b 603 488 149 285 353 488 b 1057 33 851 488 1057 282 b 1090 1 1057 15 1072 1 z m 740 847 b 697 836 732 832 714 829 l 600 892 l 503 836 b 460 847 486 829 468 832 b 471 893 450 864 454 883 l 579 956 b 596 961 585 958 590 961 b 619 956 604 963 613 960 l 729 893 b 740 847 746 883 750 864 z "},"ĵ":{"ha":1011,"x_min":0,"x_max":0,"o":"m 117 -278 l 413 -278 b 926 236 696 -278 926 -47 l 928 1008 b 896 1040 928 1026 914 1040 b 863 1008 878 1040 863 1026 l 861 236 b 413 -212 861 -11 660 -212 l 117 -212 b 83 -246 99 -212 83 -228 b 117 -278 83 -262 99 -278 z m 640 847 b 597 836 632 832 614 829 l 500 892 l 403 836 b 360 847 386 829 368 832 b 371 893 350 864 354 883 l 479 956 b 496 961 485 958 490 961 b 519 956 504 963 513 960 l 629 893 b 640 847 646 883 650 864 z "},"ó":{"ha":1206,"x_min":0,"x_max":0,"o":"m 603 1 b 1122 521 889 1 1122 235 b 603 1040 1122 807 889 1040 b 83 521 317 1040 83 807 b 603 1 83 235 317 1 z m 603 975 b 1057 521 853 975 1057 771 b 603 67 1057 271 853 67 b 149 521 353 67 149 271 b 603 975 149 771 353 975 z m 514 713 b 557 701 522 697 540 694 l 668 765 b 683 811 686 775 692 794 b 636 822 674 826 654 832 l 525 758 b 514 713 508 749 504 729 z "},"ô":{"ha":1206,"x_min":0,"x_max":0,"o":"m 603 1 b 1122 521 889 1 1122 235 b 603 1040 1122 807 889 1040 b 83 521 317 1040 83 807 b 603 1 83 235 317 1 z m 603 975 b 1057 521 853 975 1057 771 b 603 67 1057 271 853 67 b 149 521 353 67 149 271 b 603 975 149 771 353 975 z m 739 711 b 728 757 749 728 744 747 l 618 819 b 594 825 611 824 603 826 b 578 819 589 825 583 822 l 469 757 b 458 711 453 747 449 728 b 501 700 467 696 485 693 l 599 756 l 696 700 b 739 711 713 693 731 696 z "},"ö":{"ha":1206,"x_min":0,"x_max":0,"o":"m 603 1 b 1122 521 889 1 1122 235 b 603 1040 1122 807 889 1040 b 83 521 317 1040 83 807 b 603 1 83 235 317 1 z m 603 975 b 1057 521 853 975 1057 771 b 603 67 1057 271 853 67 b 149 521 353 67 149 271 b 603 975 149 771 353 975 z m 404 693 b 436 725 422 693 436 707 l 436 799 b 404 832 436 817 422 832 b 371 799 386 832 371 817 l 371 725 b 404 693 371 707 386 693 z m 793 693 b 825 725 811 693 825 707 l 825 799 b 793 832 825 817 811 832 b 760 799 775 832 760 817 l 760 725 b 793 693 760 707 775 693 z "},"ò":{"ha":1206,"x_min":0,"x_max":0,"o":"m 603 1 b 1122 521 889 1 1122 235 b 603 1040 1122 807 889 1040 b 83 521 317 1040 83 807 b 603 1 83 235 317 1 z m 603 975 b 1057 521 853 975 1057 771 b 603 67 1057 271 853 67 b 149 521 353 67 149 271 b 603 975 149 771 353 975 z m 682 711 b 671 757 692 728 688 747 l 560 821 b 513 810 542 831 522 825 b 528 764 504 793 510 774 l 639 700 b 682 711 656 693 674 696 z "},"ő":{"ha":1206,"x_min":0,"x_max":0,"o":"m 333 708 b 376 697 342 693 360 690 l 488 761 b 503 807 506 771 511 790 b 456 818 493 822 474 828 l 344 754 b 333 708 328 744 324 725 z m 696 708 b 739 697 704 693 722 690 l 850 761 b 865 807 868 771 874 790 b 818 818 856 822 836 828 l 707 754 b 696 708 690 744 686 725 z m 603 1 b 1122 521 889 1 1122 235 b 603 1040 1122 807 889 1040 b 83 521 317 1040 83 807 b 603 1 83 235 317 1 z m 603 975 b 1057 521 853 975 1057 771 b 603 67 1057 271 853 67 b 149 521 353 67 149 271 b 603 975 149 771 353 975 z "},"ō":{"ha":1206,"x_min":0,"x_max":0,"o":"m 603 1 b 1122 521 889 1 1122 235 b 603 1040 1122 807 889 1040 b 83 521 317 1040 83 807 b 603 1 83 235 317 1 z m 603 975 b 1057 521 853 975 1057 771 b 603 67 1057 271 853 67 b 149 521 353 67 149 271 b 603 975 149 771 353 975 z m 842 728 b 810 761 842 746 828 760 l 390 761 b 356 728 372 761 357 747 b 389 694 356 711 371 694 l 811 694 b 842 728 828 694 842 711 z "},"ø":{"ha":1206,"x_min":0,"x_max":0,"o":"m 603 1 b 1122 521 889 1 1122 235 b 603 1040 1122 807 889 1040 b 83 521 317 1040 83 807 b 603 1 83 235 317 1 z m 603 975 b 1057 521 853 975 1057 771 b 603 67 1057 271 853 67 b 149 521 353 67 149 271 b 603 975 149 771 353 975 z m 168 8 b 214 13 182 -3 201 -1 l 1032 988 b 1029 1033 1044 1001 1043 1022 b 982 1029 1017 1046 994 1043 l 163 54 b 168 8 153 40 156 21 z "},"ǿ":{"ha":1206,"x_min":0,"x_max":0,"o":"m 603 1 b 1122 521 889 1 1122 235 b 603 1040 1122 807 889 1040 b 83 521 317 1040 83 807 b 603 1 83 235 317 1 z m 603 975 b 1057 521 853 975 1057 771 b 603 67 1057 271 853 67 b 149 521 353 67 149 271 b 603 975 149 771 353 975 z m 168 8 b 214 13 182 -3 201 -1 l 1032 988 b 1029 1033 1044 1001 1043 1022 b 982 1029 1017 1046 994 1043 l 163 54 b 168 8 153 40 156 21 z m 389 713 b 432 701 397 697 415 694 l 543 765 b 558 811 561 775 567 794 b 511 822 549 826 529 832 l 400 758 b 389 713 383 749 379 729 z "},"õ":{"ha":1206,"x_min":0,"x_max":0,"o":"m 603 1 b 1122 521 889 1 1122 235 b 603 1040 1122 807 889 1040 b 83 521 317 1040 83 807 b 603 1 83 235 317 1 z m 603 975 b 1057 521 853 975 1057 771 b 603 67 1057 271 853 67 b 149 521 353 67 149 271 b 603 975 149 771 353 975 z m 658 699 b 665 700 661 699 664 700 l 671 703 l 782 767 b 797 813 800 776 806 796 b 750 824 788 828 768 833 l 654 768 l 560 822 b 536 828 553 826 544 829 b 519 822 531 828 525 825 l 411 760 b 400 714 394 750 390 731 b 443 703 408 699 426 696 l 540 758 l 638 703 l 642 700 b 658 699 647 699 653 699 z "},"œ":{"ha":2011,"x_min":0,"x_max":0,"o":"m 1928 521 b 1896 553 1928 539 1914 553 l 1121 553 b 603 1040 1104 824 878 1040 b 83 521 317 1040 83 807 b 603 1 83 235 317 1 b 1121 488 878 1 1103 217 l 1896 488 b 1928 521 1914 488 1928 503 z m 603 975 b 1057 521 853 975 1057 771 b 603 67 1057 271 853 67 b 149 521 353 67 149 271 b 603 975 149 771 353 975 z m 1928 1010 b 1896 1042 1928 1028 1914 1042 l 1090 1042 b 1057 1010 1072 1042 1057 1028 b 1090 976 1057 992 1072 976 l 1896 976 b 1928 1010 1914 976 1928 992 z m 1928 33 b 1896 65 1928 51 1914 65 l 1090 65 b 1057 33 1072 65 1057 51 b 1090 0 1057 15 1072 0 l 1896 0 b 1928 33 1914 0 1928 15 z "},"ŕ":{"ha":982,"x_min":0,"x_max":0,"o":"m 119 1 b 151 33 138 1 151 15 l 151 485 l 622 485 b 899 761 775 485 899 608 b 819 954 899 833 871 903 b 622 1038 800 975 736 1035 l 117 1038 b 83 1004 99 1038 83 1022 b 117 972 83 986 99 972 l 622 972 b 833 761 736 965 833 878 b 622 550 833 640 731 550 l 117 550 b 83 517 99 550 83 535 b 86 33 83 513 85 508 b 119 1 86 15 101 1 z m 703 1 b 735 33 721 1 735 15 l 735 378 b 703 411 735 396 721 411 b 669 378 685 411 669 396 l 669 33 b 703 1 669 15 685 1 z m 406 711 b 417 757 396 728 400 747 l 528 821 b 575 810 546 831 565 825 b 560 764 583 793 578 774 l 449 700 b 406 711 432 693 414 696 z "},"ř":{"ha":982,"x_min":0,"x_max":0,"o":"m 119 1 b 151 33 138 1 151 15 l 151 485 l 622 485 b 899 761 775 485 899 608 b 819 954 899 833 871 903 b 622 1038 800 975 736 1035 l 117 1038 b 83 1004 99 1038 83 1022 b 117 972 83 986 99 972 l 622 972 b 833 761 736 965 833 878 b 622 550 833 640 731 550 l 117 550 b 83 517 99 550 83 535 b 86 33 83 513 85 508 b 119 1 86 15 101 1 z m 703 1 b 735 33 721 1 735 15 l 735 378 b 703 411 735 396 721 411 b 669 378 685 411 669 396 l 669 33 b 703 1 669 15 685 1 z m 629 808 b 618 763 639 792 635 772 l 508 700 b 485 694 501 696 493 693 b 468 700 479 694 474 697 l 360 763 b 349 808 343 772 339 792 b 392 819 357 824 375 826 l 489 764 l 586 819 b 629 808 603 826 621 824 z "},"ŵ":{"ha":1208,"x_min":0,"x_max":0,"o":"m 1125 1006 b 1093 1039 1125 1024 1111 1039 b 1060 1006 1075 1039 1060 1024 l 1060 275 b 849 64 1060 158 965 64 b 638 271 733 64 639 157 l 638 729 b 604 761 638 747 622 761 b 572 729 586 761 572 747 b 571 271 572 729 572 272 b 360 64 569 157 475 64 b 149 272 244 64 150 157 l 149 1006 b 117 1039 149 1024 135 1039 b 83 1006 99 1039 83 1024 l 83 275 b 360 -1 83 122 207 -1 b 554 78 433 -1 503 26 b 604 144 575 97 592 119 b 654 78 617 119 635 97 b 849 -1 707 26 775 -1 b 1125 275 1001 -1 1125 122 z m 742 1129 b 731 1175 751 1146 747 1165 l 621 1238 b 597 1243 614 1242 606 1244 b 581 1238 592 1243 586 1240 l 472 1175 b 461 1129 456 1165 451 1146 b 504 1118 469 1114 488 1111 l 601 1174 l 699 1118 b 742 1129 715 1111 733 1114 z "},"s":{"ha":983,"x_min":0,"x_max":0,"o":"m 361 486 l 622 486 b 833 275 736 479 833 392 b 622 64 833 154 731 64 l 117 64 b 83 31 99 64 83 49 b 117 -1 83 14 99 -1 l 622 -1 b 899 275 775 -1 899 122 b 819 468 899 347 871 417 b 622 551 800 489 736 549 l 361 551 b 150 763 247 558 150 646 b 361 974 150 883 253 974 l 867 974 b 900 1007 885 974 900 989 b 867 1039 900 1024 885 1039 l 361 1039 b 85 763 208 1039 85 915 b 164 569 85 690 113 621 b 361 486 183 549 247 489 z "},"u":{"ha":1204,"x_min":0,"x_max":0,"o":"m 83 518 b 601 0 83 233 317 0 b 1119 518 888 0 1119 233 l 1121 1006 b 1088 1039 1121 1024 1107 1039 b 1056 1006 1069 1039 1056 1024 l 1054 518 b 601 67 1054 269 851 67 b 150 518 353 67 150 269 l 149 1007 b 117 1039 149 1025 135 1039 b 83 1007 99 1039 83 1025 z "},"y":{"ha":1204,"x_min":0,"x_max":0,"o":"m 1119 1004 b 1088 1039 1121 1024 1107 1039 b 1054 1004 1069 1039 1056 1024 b 601 553 1054 756 851 553 b 150 1004 353 553 150 756 b 117 1039 149 1025 135 1039 b 83 1004 99 1039 83 1025 b 568 488 83 731 299 504 l 568 33 b 601 1 568 15 583 1 b 633 33 619 1 633 15 l 633 486 b 1119 1004 904 503 1119 729 z "},"t":{"ha":1204,"x_min":0,"x_max":0,"o":"m 1121 522 b 597 1040 1121 803 890 1036 b 85 522 314 1038 85 806 l 83 522 b 117 489 83 504 97 489 b 149 522 135 489 149 504 l 150 522 b 569 972 150 760 335 954 l 569 33 b 603 1 569 15 585 1 b 635 33 621 1 635 15 l 635 972 b 1054 522 868 956 1054 760 l 1056 521 b 1088 489 1056 503 1069 489 b 1121 521 1106 489 1121 503 z "},"z":{"ha":983,"x_min":0,"x_max":0,"o":"m 361 549 b 164 465 247 546 183 486 b 85 272 113 414 85 344 b 361 -4 85 119 208 -4 l 867 -4 b 900 28 885 -4 900 11 b 867 61 900 46 885 61 l 361 61 b 150 272 253 61 150 151 b 360 483 150 388 246 475 l 622 483 b 819 567 736 486 800 546 b 899 760 871 618 899 688 b 622 1036 899 913 775 1036 l 117 1036 b 83 1004 99 1036 83 1021 b 117 971 83 986 99 971 l 622 971 b 833 760 731 971 833 881 b 622 549 833 643 736 556 z "},"ź":{"ha":983,"x_min":0,"x_max":0,"o":"m 361 549 b 164 465 247 546 183 486 b 85 272 113 414 85 344 b 361 -4 85 119 208 -4 l 867 -4 b 900 28 885 -4 900 11 b 867 61 900 46 885 61 l 361 61 b 150 272 253 61 150 151 b 360 483 150 388 246 475 l 622 483 b 819 567 736 486 800 546 b 899 760 871 618 899 688 b 622 1036 899 913 775 1036 l 117 1036 b 83 1004 99 1036 83 1021 b 117 971 83 986 99 971 l 622 971 b 833 760 731 971 833 881 b 622 549 833 643 736 556 z m 400 711 b 411 757 390 728 394 747 l 522 821 b 569 810 540 831 560 825 b 554 764 578 793 572 774 l 443 700 b 400 711 426 693 408 696 z "},"ž":{"ha":983,"x_min":0,"x_max":0,"o":"m 361 549 b 164 465 247 546 183 486 b 85 272 113 414 85 344 b 361 -4 85 119 208 -4 l 867 -4 b 900 28 885 -4 900 11 b 867 61 900 46 885 61 l 361 61 b 150 272 253 61 150 151 b 360 483 150 388 246 475 l 622 483 b 819 567 736 486 800 546 b 899 760 871 618 899 688 b 622 1036 899 913 775 1036 l 117 1036 b 83 1004 99 1036 83 1021 b 117 971 83 986 99 971 l 622 971 b 833 760 731 971 833 881 b 622 549 833 643 736 556 z m 624 810 b 613 764 633 793 629 774 l 503 701 b 479 696 496 697 488 694 b 463 701 474 696 468 699 l 354 764 b 343 810 338 774 333 793 b 386 821 351 825 369 828 l 483 765 l 581 821 b 624 810 597 828 615 825 z "},"ż":{"ha":983,"x_min":0,"x_max":0,"o":"m 361 549 b 164 465 247 546 183 486 b 85 272 113 414 85 344 b 361 -4 85 119 208 -4 l 867 -4 b 900 28 885 -4 900 11 b 867 61 900 46 885 61 l 361 61 b 150 272 253 61 150 151 b 360 483 150 388 246 475 l 622 483 b 819 567 736 486 800 546 b 899 760 871 618 899 688 b 622 1036 899 913 775 1036 l 117 1036 b 83 1004 99 1036 83 1021 b 117 971 83 986 99 971 l 622 971 b 833 760 731 971 833 881 b 622 549 833 643 736 556 z m 485 693 b 451 725 467 693 451 707 l 451 799 b 485 832 451 817 467 832 b 517 799 503 832 517 817 l 517 725 b 485 693 517 707 503 693 z "},"ý":{"ha":1204,"x_min":0,"x_max":0,"o":"m 1119 1004 b 1088 1039 1121 1024 1107 1039 b 1054 1004 1069 1039 1056 1024 b 601 553 1054 756 851 553 b 150 1004 353 553 150 756 b 117 1039 149 1025 135 1039 b 83 1004 99 1039 83 1025 b 568 488 83 731 299 504 l 568 33 b 601 1 568 15 583 1 b 633 33 619 1 633 15 l 633 486 b 1119 1004 904 503 1119 729 z m 515 847 b 526 893 506 864 510 883 l 638 957 b 685 946 656 967 675 961 b 669 900 693 929 688 910 l 558 836 b 515 847 542 829 524 832 z "},"ŷ":{"ha":1204,"x_min":0,"x_max":0,"o":"m 1119 1004 b 1088 1039 1121 1024 1107 1039 b 1054 1004 1069 1039 1056 1024 b 601 553 1054 756 851 553 b 150 1004 353 553 150 756 b 117 1039 149 1025 135 1039 b 83 1004 99 1039 83 1025 b 568 488 83 731 299 504 l 568 33 b 601 1 568 15 583 1 b 633 33 619 1 633 15 l 633 486 b 1119 1004 904 503 1119 729 z m 740 847 b 697 836 732 832 714 829 l 600 892 l 503 836 b 460 847 486 829 468 832 b 471 893 450 864 454 883 l 579 956 b 596 961 585 958 590 961 b 619 956 604 963 613 960 l 729 893 b 740 847 746 883 750 864 z "},"ÿ":{"ha":1204,"x_min":0,"x_max":0,"o":"m 1119 1004 b 1088 1039 1121 1024 1107 1039 b 1054 1004 1069 1039 1056 1024 b 601 553 1054 756 851 553 b 150 1004 353 553 150 756 b 117 1039 149 1025 135 1039 b 83 1004 99 1039 83 1025 b 568 488 83 731 299 504 l 568 33 b 601 1 568 15 583 1 b 633 33 619 1 633 15 l 633 486 b 1119 1004 904 503 1119 729 z m 406 832 b 372 864 388 832 372 846 l 372 938 b 406 971 372 956 388 971 b 438 938 424 971 438 956 l 438 864 b 406 832 438 846 424 832 z m 794 832 b 761 864 776 832 761 846 l 761 938 b 794 971 761 956 776 971 b 826 938 813 971 826 956 l 826 864 b 794 832 826 846 813 832 z "},"ỳ":{"ha":1204,"x_min":0,"x_max":0,"o":"m 1119 1004 b 1088 1039 1121 1024 1107 1039 b 1054 1004 1069 1039 1056 1024 b 601 553 1054 756 851 553 b 150 1004 353 553 150 756 b 117 1039 149 1025 135 1039 b 83 1004 99 1039 83 1025 b 568 488 83 731 299 504 l 568 33 b 601 1 568 15 583 1 b 633 33 619 1 633 15 l 633 486 b 1119 1004 904 503 1119 729 z m 683 847 b 640 836 675 832 657 829 l 529 900 b 514 946 511 910 506 929 b 561 957 524 961 543 967 l 672 893 b 683 847 689 883 693 864 z "},"ú":{"ha":1204,"x_min":0,"x_max":0,"o":"m 83 518 b 601 0 83 233 317 0 b 1119 518 888 0 1119 233 l 1121 1006 b 1088 1039 1121 1024 1107 1039 b 1056 1006 1069 1039 1056 1024 l 1054 518 b 601 67 1054 269 851 67 b 150 518 353 67 150 269 l 149 1007 b 117 1039 149 1025 135 1039 b 83 1007 99 1039 83 1025 z m 517 711 b 528 757 507 728 511 747 l 639 821 b 686 810 657 831 676 825 b 671 764 694 793 689 774 l 560 700 b 517 711 543 693 525 696 z "},"û":{"ha":1204,"x_min":0,"x_max":0,"o":"m 83 518 b 601 0 83 233 317 0 b 1119 518 888 0 1119 233 l 1121 1006 b 1088 1039 1121 1024 1107 1039 b 1056 1006 1069 1039 1056 1024 l 1054 518 b 601 67 1054 269 851 67 b 150 518 353 67 150 269 l 149 1007 b 117 1039 149 1025 135 1039 b 83 1007 99 1039 83 1025 z m 740 711 b 697 700 732 696 714 693 l 600 756 l 503 700 b 460 711 486 693 468 696 b 471 757 450 728 454 747 l 579 819 b 596 825 585 822 590 825 b 619 819 604 826 613 824 l 729 757 b 740 711 746 747 750 728 z "},"ü":{"ha":1204,"x_min":0,"x_max":0,"o":"m 83 518 b 601 0 83 233 317 0 b 1119 518 888 0 1119 233 l 1121 1006 b 1088 1039 1121 1024 1107 1039 b 1056 1006 1069 1039 1056 1024 l 1054 518 b 601 67 1054 269 851 67 b 150 518 353 67 150 269 l 149 1007 b 117 1039 149 1025 135 1039 b 83 1007 99 1039 83 1025 z m 407 693 b 374 725 389 693 374 707 l 374 799 b 407 832 374 817 389 832 b 439 799 425 832 439 817 l 439 725 b 407 693 439 707 425 693 z m 796 693 b 763 725 778 693 763 707 l 763 799 b 796 832 763 817 778 832 b 828 799 814 832 828 817 l 828 725 b 796 693 828 707 814 693 z "},"ű":{"ha":1204,"x_min":0,"x_max":0,"o":"m 335 711 b 346 757 325 728 329 747 l 457 821 b 504 810 475 831 494 825 b 489 764 513 793 507 774 l 378 700 b 335 711 361 693 343 696 z m 697 711 b 708 757 688 728 692 747 l 819 821 b 867 810 838 831 857 825 b 851 764 875 793 869 774 l 740 700 b 697 711 724 693 706 696 z m 83 518 b 601 0 83 233 317 0 b 1119 518 888 0 1119 233 l 1121 1006 b 1088 1039 1121 1024 1107 1039 b 1056 1006 1069 1039 1056 1024 l 1054 518 b 601 67 1054 269 851 67 b 150 518 353 67 150 269 l 149 1007 b 117 1039 149 1025 135 1039 b 83 1007 99 1039 83 1025 z "},"ù":{"ha":1204,"x_min":0,"x_max":0,"o":"m 83 518 b 601 0 83 233 317 0 b 1119 518 888 0 1119 233 l 1121 1006 b 1088 1039 1121 1024 1107 1039 b 1056 1006 1069 1039 1056 1024 l 1054 518 b 601 67 1054 269 851 67 b 150 518 353 67 150 269 l 149 1007 b 117 1039 149 1025 135 1039 b 83 1007 99 1039 83 1025 z m 685 714 b 642 703 676 699 658 696 l 531 767 b 515 813 513 776 507 796 b 563 824 525 828 544 833 l 674 760 b 685 714 690 750 694 731 z "},"ū":{"ha":1204,"x_min":0,"x_max":0,"o":"m 83 518 b 601 0 83 233 317 0 b 1119 518 888 0 1119 233 l 1121 1006 b 1088 1039 1121 1024 1107 1039 b 1056 1006 1069 1039 1056 1024 l 1054 518 b 601 67 1054 269 851 67 b 150 518 353 67 150 269 l 149 1007 b 117 1039 149 1025 135 1039 b 83 1007 99 1039 83 1025 z m 843 729 b 813 696 843 713 829 696 l 390 696 b 357 729 372 696 357 713 b 392 763 358 749 374 763 l 811 763 b 843 729 829 761 843 747 z "},"ų":{"ha":1204,"x_min":0,"x_max":0,"o":"m 83 518 b 601 0 83 233 317 0 b 1119 518 888 0 1119 233 l 1121 1006 b 1088 1039 1121 1024 1107 1039 b 1056 1006 1069 1039 1056 1024 l 1054 518 b 601 67 1054 269 851 67 b 150 518 353 67 150 269 l 149 1007 b 117 1039 149 1025 135 1039 b 83 1007 99 1039 83 1025 z m 1113 -236 b 1068 -250 1104 -253 1086 -258 l 960 -186 b 943 -168 951 -182 946 -176 b 938 -151 938 -164 938 -158 l 938 -26 b 971 6 936 -7 951 6 b 1003 -25 988 7 1001 -7 l 1003 -137 l 1101 -193 b 1113 -236 1114 -204 1121 -221 z "},"ũ":{"ha":1204,"x_min":0,"x_max":0,"o":"m 83 518 b 601 0 83 233 317 0 b 1119 518 888 0 1119 233 l 1121 1006 b 1088 1039 1121 1024 1107 1039 b 1056 1006 1069 1039 1056 1024 l 1054 518 b 601 67 1054 269 851 67 b 150 518 353 67 150 269 l 149 1007 b 117 1039 149 1025 135 1039 b 83 1007 99 1039 83 1025 z m 661 696 b 644 697 656 696 650 696 l 640 700 l 543 756 l 446 700 b 403 711 429 693 411 696 b 414 757 393 728 397 747 l 522 819 b 539 825 528 822 533 825 b 563 819 547 826 556 824 l 657 765 l 753 821 b 800 810 771 831 790 825 b 785 764 808 793 803 774 l 674 700 l 668 697 b 661 696 667 697 664 696 z "},"ś":{"ha":983,"x_min":0,"x_max":0,"o":"m 361 486 l 622 486 b 833 275 736 479 833 392 b 622 64 833 154 731 64 l 117 64 b 83 31 99 64 83 49 b 117 -1 83 14 99 -1 l 622 -1 b 899 275 775 -1 899 122 b 819 468 899 347 871 417 b 622 551 800 489 736 549 l 361 551 b 150 763 247 558 150 646 b 361 974 150 883 253 974 l 867 974 b 900 1007 885 974 900 989 b 867 1039 900 1024 885 1039 l 361 1039 b 85 763 208 1039 85 915 b 164 569 85 690 113 621 b 361 486 183 549 247 489 z m 396 714 b 407 760 386 731 390 750 l 518 824 b 565 813 536 833 556 828 b 550 767 574 796 568 776 l 439 703 b 396 714 422 696 404 699 z "},"š":{"ha":983,"x_min":0,"x_max":0,"o":"m 361 486 l 622 486 b 833 275 736 479 833 392 b 622 64 833 154 731 64 l 117 64 b 83 31 99 64 83 49 b 117 -1 83 14 99 -1 l 622 -1 b 899 275 775 -1 899 122 b 819 468 899 347 871 417 b 622 551 800 489 736 549 l 361 551 b 150 763 247 558 150 646 b 361 974 150 883 253 974 l 867 974 b 900 1007 885 974 900 989 b 867 1039 900 1024 885 1039 l 361 1039 b 85 763 208 1039 85 915 b 164 569 85 690 113 621 b 361 486 183 549 247 489 z m 619 810 b 608 764 629 793 625 774 l 499 701 b 475 696 492 697 483 694 b 458 701 469 696 464 699 l 350 764 b 339 810 333 774 329 793 b 382 821 347 825 365 828 l 479 765 l 576 821 b 619 810 593 828 611 825 z "},"ş":{"ha":983,"x_min":0,"x_max":0,"o":"m 361 486 l 622 486 b 833 275 736 479 833 392 b 622 64 833 154 731 64 l 117 64 b 83 31 99 64 83 49 b 117 -1 83 14 99 -1 l 622 -1 b 899 275 775 -1 899 122 b 819 468 899 347 871 417 b 622 551 800 489 736 549 l 361 551 b 150 763 247 558 150 646 b 361 974 150 883 253 974 l 867 974 b 900 1007 885 974 900 989 b 867 1039 900 1024 885 1039 l 361 1039 b 85 763 208 1039 85 915 b 164 569 85 690 113 621 b 361 486 183 549 247 489 z m 396 -242 b 407 -199 388 -226 394 -210 l 506 -143 l 506 -31 b 538 0 507 -12 521 1 b 571 -32 557 0 572 -12 l 571 -157 b 565 -174 571 -164 571 -169 b 549 -192 563 -182 557 -187 l 440 -256 b 396 -242 422 -264 404 -258 z "},"ŝ":{"ha":983,"x_min":0,"x_max":0,"o":"m 361 486 l 622 486 b 833 275 736 479 833 392 b 622 64 833 154 731 64 l 117 64 b 83 31 99 64 83 49 b 117 -1 83 14 99 -1 l 622 -1 b 899 275 775 -1 899 122 b 819 468 899 347 871 417 b 622 551 800 489 736 549 l 361 551 b 150 763 247 558 150 646 b 361 974 150 883 253 974 l 867 974 b 900 1007 885 974 900 989 b 867 1039 900 1024 885 1039 l 361 1039 b 85 763 208 1039 85 915 b 164 569 85 690 113 621 b 361 486 183 549 247 489 z m 619 711 b 576 700 611 696 593 693 l 479 756 l 382 700 b 339 711 365 693 347 696 b 350 757 329 728 333 747 l 458 819 b 475 825 464 822 469 825 b 499 819 483 826 492 824 l 608 757 b 619 711 625 747 629 728 z "},"ﬆ":{"ha":2024,"x_min":0,"x_max":0,"o":"m 361 486 l 622 486 b 833 275 736 479 833 392 b 622 64 833 154 731 64 l 117 64 b 83 31 99 64 83 49 b 117 -1 83 14 99 -1 l 622 -1 b 899 275 775 -1 899 122 b 819 468 899 347 871 417 b 622 551 800 489 736 549 l 361 551 b 150 763 247 558 150 646 b 361 974 150 883 253 974 l 1390 975 l 1389 33 b 1422 1 1389 15 1404 1 b 1454 33 1440 1 1454 15 l 1454 972 b 1874 522 1688 956 1874 760 l 1875 521 b 1907 489 1875 503 1889 489 b 1940 521 1925 489 1940 503 l 1940 522 b 1424 1040 1940 799 1713 1032 l 1422 1040 l 361 1039 b 85 763 208 1039 85 915 b 164 569 85 690 113 621 b 361 486 183 549 247 489 z "},"v":{"ha":1068,"x_min":0,"x_max":0,"o":"m 985 1007 b 951 1039 985 1025 969 1039 b 919 1007 933 1039 919 1025 l 919 519 b 467 67 919 271 717 67 l 149 67 l 149 1006 b 115 1039 149 1024 133 1039 b 83 1006 97 1039 83 1024 l 83 32 b 117 1 85 14 99 1 l 467 1 b 985 519 753 1 985 235 z "},"í":{"ha":346,"x_min":0,"x_max":0,"o":"m 172 1 b 204 33 190 1 204 15 l 204 517 b 172 550 204 535 190 550 b 139 517 154 550 139 535 l 139 33 b 172 1 139 15 154 1 z m 89 847 b 132 836 97 832 115 829 l 243 900 b 258 946 261 910 267 929 b 211 957 249 961 229 967 l 100 893 b 89 847 83 883 79 864 z "},"î":{"ha":458,"x_min":0,"x_max":0,"o":"m 229 1 b 261 33 247 1 261 15 l 261 517 b 229 550 261 535 247 550 b 196 517 211 550 196 535 l 196 33 b 229 1 196 15 211 1 z m 369 847 b 358 893 379 864 375 883 l 249 956 b 225 961 242 960 233 963 b 208 956 219 961 214 958 l 100 893 b 89 847 83 883 79 864 b 132 836 97 832 115 829 l 229 892 l 326 836 b 369 847 343 829 361 832 z "},"ï":{"ha":524,"x_min":0,"x_max":0,"o":"m 240 1 b 272 33 258 1 272 15 l 272 517 b 240 550 272 535 258 550 b 207 517 222 550 207 535 l 207 33 b 240 1 207 15 222 1 z m 117 832 b 149 864 135 832 149 846 l 149 938 b 117 971 149 956 135 971 b 83 938 99 971 83 956 l 83 864 b 117 832 83 846 99 832 z m 436 832 b 399 864 454 832 399 846 l 399 938 b 367 971 399 956 385 971 b 333 938 349 971 333 956 l 333 864 b 436 832 333 846 418 832 z "},"ì":{"ha":346,"x_min":0,"x_max":0,"o":"m 172 1 b 204 33 190 1 204 15 l 204 517 b 172 550 204 535 190 550 b 139 517 154 550 139 535 l 139 33 b 172 1 139 15 154 1 z m 257 847 b 246 893 267 864 263 883 l 135 957 b 88 946 117 967 97 961 b 103 900 79 929 85 910 l 214 836 b 257 847 231 829 249 832 z "},"ī":{"ha":514,"x_min":0,"x_max":0,"o":"m 257 1 b 289 33 275 1 289 15 l 289 517 b 257 550 289 535 275 550 b 224 517 239 550 224 535 l 224 33 b 257 1 224 15 239 1 z m 431 901 b 399 935 431 919 417 933 l 118 935 b 83 901 100 935 85 921 b 117 868 83 885 99 868 l 400 868 b 431 901 417 868 431 885 z "},"į":{"ha":347,"x_min":0,"x_max":0,"o":"m 175 694 b 207 726 193 694 207 708 l 207 1007 b 175 1040 207 1025 193 1040 b 142 1007 157 1040 142 1025 l 142 726 b 175 694 142 708 157 694 z m 175 1 b 207 33 193 1 207 15 l 207 517 b 175 550 207 535 193 550 b 142 517 157 550 142 535 l 142 33 b 175 1 142 15 157 1 z m 260 -236 b 249 -193 268 -221 261 -204 l 150 -137 l 150 -25 b 118 6 149 -7 135 7 b 85 -26 99 6 83 -7 l 85 -151 b 90 -168 85 -158 85 -164 b 107 -186 93 -176 99 -182 l 215 -250 b 260 -236 233 -258 251 -253 z "},"ĩ":{"ha":574,"x_min":0,"x_max":0,"o":"m 286 1 b 318 33 304 1 318 15 l 318 517 b 286 550 318 535 304 550 b 253 517 268 550 253 535 l 253 33 b 286 1 253 15 268 1 z m 347 832 b 354 833 350 832 353 833 l 360 836 l 471 900 b 486 946 489 910 494 929 b 439 957 476 961 457 967 l 343 901 l 249 956 b 225 961 242 960 233 963 b 208 956 219 961 214 958 l 100 893 b 89 847 83 883 79 864 b 132 836 97 832 115 829 l 229 892 l 326 836 l 331 833 b 347 832 336 832 342 832 z "},"ĳ":{"ha":1011,"x_min":0,"x_max":0,"o":"m 506 694 b 538 726 524 694 538 708 l 538 1007 b 506 1040 538 1025 524 1040 b 472 1007 488 1040 472 1025 l 472 726 b 506 694 472 708 488 694 z m 506 1 b 538 33 524 1 538 15 l 538 517 b 506 550 538 535 524 550 b 472 517 488 550 472 535 l 472 33 b 506 1 472 15 488 1 z m 117 -278 l 413 -278 b 926 236 696 -278 926 -47 l 928 1008 b 896 1040 928 1026 914 1040 b 863 1008 878 1040 863 1026 l 861 236 b 413 -212 861 -11 660 -212 l 117 -212 b 83 -246 99 -212 83 -228 b 117 -278 83 -262 99 -278 z "},"n":{"ha":1204,"x_min":0,"x_max":0,"o":"m 1121 522 b 603 1040 1121 807 888 1040 b 85 522 317 1040 85 807 l 83 35 b 117 1 83 17 97 1 b 149 35 135 1 149 17 l 150 522 b 603 974 150 771 353 974 b 1054 522 851 974 1054 771 l 1056 33 b 1088 1 1056 15 1069 1 b 1121 33 1106 1 1121 15 z "},"ń":{"ha":1204,"x_min":0,"x_max":0,"o":"m 1121 522 b 603 1040 1121 807 888 1040 b 85 522 317 1040 85 807 l 83 35 b 117 1 83 17 97 1 b 149 35 135 1 149 17 l 150 522 b 603 974 150 771 353 974 b 1054 522 851 974 1054 771 l 1056 33 b 1088 1 1056 15 1069 1 b 1121 33 1106 1 1121 15 z m 519 711 b 531 757 510 728 514 747 l 642 821 b 689 810 660 831 679 825 b 674 764 697 793 692 774 l 563 700 b 519 711 546 693 528 696 z "},"ň":{"ha":1204,"x_min":0,"x_max":0,"o":"m 1121 522 b 603 1040 1121 807 888 1040 b 85 522 317 1040 85 807 l 83 35 b 117 1 83 17 97 1 b 149 35 135 1 149 17 l 150 522 b 603 974 150 771 353 974 b 1054 522 851 974 1054 771 l 1056 33 b 1088 1 1056 15 1069 1 b 1121 33 1106 1 1121 15 z m 743 808 b 732 763 753 792 749 772 l 622 700 b 599 694 615 696 607 693 b 582 700 593 694 588 697 l 474 763 b 463 808 457 772 453 792 b 506 819 471 824 489 826 l 603 764 l 700 819 b 743 808 717 826 735 824 z "},"ñ":{"ha":1204,"x_min":0,"x_max":0,"o":"m 1121 522 b 603 1040 1121 807 888 1040 b 85 522 317 1040 85 807 l 83 35 b 117 1 83 17 97 1 b 149 35 135 1 149 17 l 150 522 b 603 974 150 771 353 974 b 1054 522 851 974 1054 771 l 1056 33 b 1088 1 1056 15 1069 1 b 1121 33 1106 1 1121 15 z m 664 696 b 647 697 658 696 653 696 l 643 700 l 546 756 l 449 700 b 406 711 432 693 414 696 b 417 757 396 728 400 747 l 525 819 b 542 825 531 822 536 825 b 565 819 550 826 558 824 l 660 765 l 756 821 b 803 810 774 831 793 825 b 788 764 811 793 806 774 l 676 700 l 671 697 b 664 696 669 697 667 696 z "},"l":{"ha":1011,"x_min":0,"x_max":0,"o":"m 894 1 b 928 33 913 1 928 17 b 894 67 928 51 913 67 l 599 67 b 150 515 351 67 150 268 l 149 1008 b 115 1040 149 1026 133 1040 b 83 1008 97 1040 83 1026 l 85 515 b 599 1 85 232 315 1 z "},"ĺ":{"ha":1011,"x_min":0,"x_max":0,"o":"m 894 1 b 928 33 913 1 928 17 b 894 67 928 51 913 67 l 599 67 b 150 515 351 67 150 268 l 149 1008 b 115 1040 149 1026 133 1040 b 83 1008 97 1040 83 1026 l 85 515 b 599 1 85 232 315 1 z m 422 847 b 433 893 413 864 417 883 l 544 957 b 592 946 563 967 582 961 b 576 900 600 929 594 910 l 465 836 b 422 847 449 829 431 832 z "},"g":{"ha":1068,"x_min":0,"x_max":0,"o":"m 985 521 b 953 554 985 539 971 554 b 919 521 935 554 919 539 l 919 67 l 601 67 b 149 519 351 67 149 271 b 601 974 149 769 351 972 b 951 972 603 974 951 972 b 985 1006 969 972 985 988 b 951 1039 985 1024 969 1039 l 601 1039 b 83 519 315 1039 83 806 b 601 1 83 235 315 1 l 951 1 b 985 32 969 1 983 14 z "},"ĝ":{"ha":1068,"x_min":0,"x_max":0,"o":"m 985 521 b 953 554 985 539 971 554 b 919 521 935 554 919 539 l 919 67 l 601 67 b 149 519 351 67 149 271 b 601 974 149 769 351 972 b 951 972 603 974 951 972 b 985 1006 969 972 985 988 b 951 1039 985 1024 969 1039 l 601 1039 b 83 519 315 1039 83 806 b 601 1 83 235 315 1 l 951 1 b 985 32 969 1 983 14 z m 743 711 b 700 700 735 696 717 693 l 603 756 l 506 700 b 463 711 489 693 471 696 b 474 757 453 728 457 747 l 582 819 b 599 825 588 822 593 825 b 622 819 607 826 615 824 l 732 757 b 743 711 749 747 753 728 z "},"ġ":{"ha":1068,"x_min":0,"x_max":0,"o":"m 985 521 b 953 554 985 539 971 554 b 919 521 935 554 919 539 l 919 67 l 601 67 b 149 519 351 67 149 271 b 601 974 149 769 351 972 b 951 972 603 974 951 972 b 985 1006 969 972 985 988 b 951 1039 985 1024 969 1039 l 601 1039 b 83 519 315 1039 83 806 b 601 1 83 235 315 1 l 951 1 b 985 32 969 1 983 14 z m 674 699 b 640 731 656 699 640 713 l 640 804 b 674 838 640 822 656 838 b 706 804 692 838 706 822 l 706 731 b 674 699 706 713 692 699 z "},"p":{"ha":982,"x_min":0,"x_max":0,"o":"m 119 1 b 151 33 138 1 151 15 l 151 485 l 622 485 b 899 761 775 485 899 608 b 819 954 899 833 871 903 b 622 1038 800 975 736 1035 l 117 1038 b 83 1004 99 1038 83 1022 b 117 972 83 986 99 972 l 622 972 b 833 761 736 965 833 878 b 622 550 833 640 731 550 l 117 550 b 83 517 99 550 83 535 b 86 33 83 513 85 508 b 119 1 86 15 101 1 z "},"x":{"ha":1206,"x_min":0,"x_max":0,"o":"m 1121 35 b 785 519 1121 256 981 444 b 1121 1004 981 593 1121 783 b 1089 1039 1122 1024 1108 1039 b 1056 1004 1071 1039 1057 1024 b 603 553 1056 756 853 553 b 151 1004 354 553 151 756 b 118 1039 150 1025 136 1039 b 85 1004 100 1039 85 1025 b 419 519 85 783 224 593 b 85 35 224 444 85 256 b 117 0 83 15 97 0 b 150 35 135 0 149 15 b 603 486 150 283 353 486 b 1054 35 851 486 1054 283 b 1088 0 1056 14 1069 0 b 1121 35 1106 0 1121 14 z "},"f":{"ha":1038,"x_min":0,"x_max":0,"o":"m 117 1 b 149 33 135 1 149 15 l 149 486 l 740 486 b 774 519 758 486 774 501 b 740 553 774 538 758 553 l 150 553 b 603 975 167 789 364 975 l 921 975 b 954 1008 939 975 954 990 b 921 1042 954 1026 939 1042 l 603 1042 b 83 521 317 1042 83 808 l 83 33 b 117 1 83 15 99 1 z "},"˚":{"ha":464,"x_min":0,"x_max":0,"o":"m 231 1129 b 83 979 150 1129 83 1063 b 231 832 83 899 150 832 b 381 979 314 832 381 899 b 231 1129 381 1063 314 1129 z m 231 894 b 146 979 185 894 146 933 b 231 1067 146 1029 185 1067 b 318 979 281 1067 318 1029 b 231 894 318 933 281 894 z "},"Å":{"ha":1204,"x_min":0,"x_max":0,"o":"m 1121 522 b 603 1040 1121 807 888 1040 b 85 522 317 1040 85 807 l 83 35 b 117 1 83 17 97 1 b 149 35 135 1 149 17 l 150 488 l 1054 488 l 1056 33 b 1088 1 1056 15 1069 1 b 1121 33 1106 1 1121 15 z m 151 553 b 603 974 167 788 363 974 b 1053 553 840 974 1036 788 z m 599 1407 b 451 1257 518 1407 451 1340 b 599 1110 451 1176 518 1110 b 749 1257 682 1110 749 1176 b 599 1407 749 1340 682 1407 z m 599 1172 b 514 1257 553 1172 514 1211 b 599 1344 514 1307 553 1344 b 686 1257 649 1344 686 1307 b 599 1172 686 1211 649 1172 z "},"Ů":{"ha":1204,"x_min":0,"x_max":0,"o":"m 83 518 b 601 0 83 233 317 0 b 1119 518 888 0 1119 233 l 1121 1006 b 1088 1039 1121 1024 1107 1039 b 1056 1006 1069 1039 1056 1024 l 1054 518 b 601 67 1054 269 851 67 b 150 518 353 67 150 269 l 149 1007 b 117 1039 149 1025 135 1039 b 83 1007 99 1039 83 1025 z m 599 1407 b 451 1257 518 1407 451 1340 b 599 1110 451 1176 518 1110 b 749 1257 682 1110 749 1176 b 599 1407 749 1340 682 1407 z m 599 1172 b 514 1257 553 1172 514 1211 b 599 1344 514 1307 553 1344 b 686 1257 649 1344 686 1307 b 599 1172 686 1211 649 1172 z "},"å":{"ha":1204,"x_min":0,"x_max":0,"o":"m 1121 522 b 603 1040 1121 807 888 1040 b 85 522 317 1040 85 807 l 83 35 b 117 1 83 17 97 1 b 149 35 135 1 149 17 l 150 488 l 1054 488 l 1056 33 b 1088 1 1056 15 1069 1 b 1121 33 1106 1 1121 15 z m 151 553 b 603 974 167 788 363 974 b 1053 553 840 974 1036 788 z m 603 901 b 456 751 522 901 456 835 b 603 604 456 671 522 604 b 753 751 686 604 753 671 b 603 901 753 835 686 901 z m 603 667 b 518 751 557 667 518 706 b 603 839 518 801 557 839 b 690 751 653 839 690 801 b 603 667 690 706 653 667 z "},"ů":{"ha":1204,"x_min":0,"x_max":0,"o":"m 83 518 b 601 0 83 233 317 0 b 1119 518 888 0 1119 233 l 1121 1006 b 1088 1039 1121 1024 1107 1039 b 1056 1006 1069 1039 1056 1024 l 1054 518 b 601 67 1054 269 851 67 b 150 518 353 67 150 269 l 149 1007 b 117 1039 149 1025 135 1039 b 83 1007 99 1039 83 1025 z m 599 1129 b 451 979 518 1129 451 1063 b 599 832 451 899 518 832 b 749 979 682 832 749 899 b 599 1129 749 1063 682 1129 z m 599 894 b 514 979 553 894 514 933 b 599 1067 514 1029 553 1067 b 686 979 649 1067 686 1029 b 599 894 686 933 649 894 z "},"*":{"ha":524,"x_min":0,"x_max":0,"o":"m 314 860 l 314 860 l 408 860 b 440 892 426 860 439 874 b 408 925 440 910 426 925 l 315 925 l 353 989 b 340 1032 358 1006 356 1024 b 294 1021 325 1042 306 1038 l 261 961 l 228 1021 b 182 1032 217 1038 197 1042 b 169 989 167 1024 164 1006 l 206 925 l 117 926 b 83 893 99 926 83 910 b 117 858 85 874 99 858 l 207 858 l 207 858 l 169 794 b 182 751 164 778 167 760 b 228 763 197 742 217 746 l 261 819 l 294 763 b 340 751 306 746 325 742 b 353 794 356 760 358 778 z "},"+":{"ha":718,"x_min":0,"x_max":0,"o":"m 358 800 b 326 768 342 800 326 786 l 325 556 l 117 557 b 83 524 99 557 83 540 b 117 489 85 504 99 489 l 325 489 l 325 282 b 358 249 325 264 342 249 b 393 282 378 250 393 264 l 392 489 l 603 490 b 635 522 621 490 633 504 b 603 556 635 540 621 556 l 392 556 l 392 768 b 358 800 392 786 378 799 z "},"±":{"ha":718,"x_min":0,"x_max":0,"o":"m 635 35 b 603 68 635 53 621 68 l 117 69 b 83 36 99 69 83 53 b 117 1 85 17 99 1 l 603 3 b 635 35 621 3 633 17 z m 358 800 b 326 768 342 800 326 786 l 325 556 l 117 557 b 83 524 99 557 83 540 b 117 489 85 504 99 489 l 325 489 l 325 282 b 358 249 325 264 342 249 b 393 282 378 250 393 264 l 392 489 l 603 490 b 635 522 621 490 633 504 b 603 556 635 540 621 556 l 392 556 l 392 768 b 358 800 392 786 378 799 z "},"×":{"ha":578,"x_min":0,"x_max":0,"o":"m 93 719 b 93 674 81 707 81 686 l 242 522 l 93 376 b 93 329 81 364 82 340 b 142 328 108 317 129 315 l 289 475 l 436 329 b 483 329 449 317 471 317 b 483 376 496 343 496 364 l 336 522 l 485 672 b 485 718 497 685 496 704 b 439 719 472 731 451 732 l 289 569 l 139 719 b 93 719 126 732 107 732 z "},"%":{"ha":1071,"x_min":0,"x_max":0,"o":"m 231 1044 b 83 894 150 1044 83 978 b 231 747 83 814 150 747 b 381 894 314 747 381 814 b 231 1044 381 978 314 1044 z m 231 810 b 146 894 185 810 146 849 b 231 982 146 944 185 982 b 318 894 281 982 318 944 b 231 810 318 849 281 810 z m 838 297 b 690 147 757 297 690 231 b 838 0 690 67 757 0 b 988 147 921 0 988 67 b 838 297 988 231 921 297 z m 838 63 b 753 147 792 63 753 101 b 838 235 753 197 792 235 b 925 147 888 235 925 197 b 838 63 925 101 888 63 z m 101 10 b 147 14 115 -1 135 0 l 965 989 b 963 1035 978 1003 976 1024 b 915 1031 950 1047 928 1044 l 96 56 b 101 10 86 42 89 22 z "},"‰":{"ha":1126,"x_min":0,"x_max":0,"o":"m 231 1044 b 83 894 150 1044 83 978 b 231 747 83 814 150 747 b 381 894 314 747 381 814 b 231 1044 381 978 314 1044 z m 231 810 b 146 894 185 810 146 849 b 231 982 146 944 185 982 b 318 894 281 982 318 944 b 231 810 318 849 281 810 z m 658 297 b 511 147 578 297 511 231 b 658 0 511 67 578 0 b 776 57 707 0 750 22 b 893 0 804 22 846 0 b 1043 147 976 0 1043 67 b 893 297 1043 231 976 297 b 776 239 846 297 804 275 b 658 297 750 274 707 297 z m 893 63 b 808 140 849 63 811 97 l 808 147 b 893 235 808 197 847 235 b 981 147 943 235 981 197 b 893 63 981 101 943 63 z m 658 63 b 574 147 613 63 574 101 b 658 235 574 197 613 235 b 746 153 706 235 743 200 l 746 147 b 658 63 746 101 708 63 z m 101 10 b 147 14 115 -1 135 0 l 965 989 b 963 1035 978 1003 976 1024 b 915 1031 950 1047 928 1044 l 96 56 b 101 10 86 42 89 22 z "},"¦":{"ha":232,"x_min":0,"x_max":0,"o":"m 117 -71 b 149 -39 135 -71 149 -57 l 149 382 b 117 415 149 400 135 415 b 83 382 99 415 83 400 l 83 -39 b 117 -71 83 -57 99 -71 z m 117 681 b 149 713 135 681 149 694 l 149 1103 b 117 1136 149 1121 135 1136 b 83 1103 99 1136 83 1121 l 83 713 b 117 681 83 694 99 681 z "},"|":{"ha":232,"x_min":0,"x_max":0,"o":"m 117 -279 b 149 -247 135 -279 149 -265 l 149 1103 b 117 1136 149 1121 135 1136 b 83 1103 99 1136 83 1121 l 83 -247 b 117 -279 83 -265 99 -279 z "},"≠":{"ha":1053,"x_min":0,"x_max":0,"o":"m 240 385 b 274 350 242 365 256 350 l 338 350 l 90 56 b 96 10 81 42 83 22 b 142 14 110 -1 129 0 l 424 350 l 760 351 b 792 383 778 351 790 365 b 760 417 792 401 778 417 l 481 417 l 658 628 l 658 628 l 760 629 b 792 661 778 629 790 643 b 760 694 792 679 778 694 l 713 694 l 960 989 b 957 1035 972 1003 971 1024 b 910 1031 944 1047 922 1044 l 628 694 l 628 694 l 274 696 b 240 663 256 696 240 679 b 274 628 242 643 256 628 l 572 628 l 394 417 l 394 417 l 274 418 b 240 385 256 418 240 401 z "},"†":{"ha":524,"x_min":0,"x_max":0,"o":"m 440 522 b 408 556 440 540 426 556 l 294 556 l 294 1103 b 263 1136 294 1121 281 1136 b 229 1103 244 1136 229 1121 l 229 556 l 229 556 l 117 557 b 83 524 99 557 83 540 b 117 489 85 504 99 489 l 229 489 l 229 -247 b 263 -279 229 -265 244 -279 b 294 -247 281 -279 294 -265 l 294 489 l 294 489 l 408 490 b 440 522 426 490 439 504 z "},"‡":{"ha":718,"x_min":0,"x_max":0,"o":"m 360 -279 b 392 -247 378 -279 392 -265 l 392 350 l 392 350 l 603 351 b 635 383 621 351 633 365 b 603 417 635 401 621 417 l 392 417 l 392 628 l 392 628 l 603 629 b 635 661 621 629 633 643 b 603 694 635 679 621 694 l 392 694 l 392 1103 b 360 1136 392 1121 378 1136 b 326 1103 342 1136 326 1121 l 326 694 l 326 694 l 117 696 b 83 663 99 696 83 679 b 117 628 85 643 99 628 l 326 628 l 326 417 l 326 417 l 117 418 b 83 385 99 418 83 401 b 117 350 85 365 99 350 l 326 350 l 326 -247 b 360 -279 326 -265 342 -279 z "},"•":{"ha":464,"x_min":0,"x_max":0,"o":"m 231 554 b 83 404 150 554 83 488 b 231 257 83 324 150 257 b 381 404 314 257 381 324 b 231 554 381 488 314 554 z "},"°":{"ha":464,"x_min":0,"x_max":0,"o":"m 231 1129 b 83 979 150 1129 83 1063 b 231 832 83 899 150 832 b 381 979 314 832 381 899 b 231 1129 381 1063 314 1129 z m 231 894 b 146 979 185 894 146 933 b 231 1067 146 1029 185 1067 b 318 979 281 1067 318 1029 b 231 894 318 933 281 894 z "},"․":{"ha":232,"x_min":0,"x_max":0,"o":"m 117 -71 b 149 -39 135 -71 149 -57 l 149 35 b 117 68 149 53 135 68 b 83 35 99 68 83 53 l 83 -39 b 117 -71 83 -57 99 -71 z "},"‥":{"ha":414,"x_min":0,"x_max":0,"o":"m 117 -71 b 149 -39 135 -71 149 -57 l 149 35 b 117 68 149 53 135 68 b 83 35 99 68 83 53 l 83 -39 b 117 -71 83 -57 99 -71 z m 299 -71 b 331 -39 317 -71 331 -57 l 331 35 b 299 68 331 53 317 68 b 265 35 281 68 265 53 l 265 -39 b 299 -71 265 -57 281 -71 z "},"…":{"ha":596,"x_min":0,"x_max":0,"o":"m 117 -71 b 149 -39 135 -71 149 -57 l 149 35 b 117 68 149 53 135 68 b 83 35 99 68 83 53 l 83 -39 b 117 -71 83 -57 99 -71 z m 299 -71 b 331 -39 317 -71 331 -57 l 331 35 b 299 68 331 53 317 68 b 265 35 281 68 265 53 l 265 -39 b 299 -71 265 -57 281 -71 z m 481 -71 b 513 -39 499 -71 513 -57 l 513 35 b 481 68 513 53 499 68 b 447 35 463 68 447 53 l 447 -39 b 481 -71 447 -57 463 -71 z "},"_":{"ha":1135,"x_min":0,"x_max":0,"o":"m 1051 -103 b 1019 -69 1051 -85 1038 -69 l 117 -68 b 83 -101 99 -68 83 -85 b 117 -136 85 -121 99 -136 l 1019 -135 b 1051 -103 1038 -135 1050 -121 z "},"¤":{"ha":578,"x_min":0,"x_max":0,"o":"m 289 551 b 210 528 260 551 232 543 l 139 599 b 93 599 126 611 107 611 b 93 553 81 586 81 565 l 164 481 b 142 401 150 457 142 431 b 164 325 142 374 150 347 l 93 256 b 93 208 81 243 82 219 b 142 207 108 196 129 194 l 211 276 b 289 254 233 261 260 254 b 367 276 318 254 344 263 l 436 208 b 483 208 449 196 471 196 b 483 256 496 222 496 243 l 415 322 b 439 401 431 346 439 372 b 415 482 439 431 431 458 l 485 551 b 485 597 497 564 496 583 b 439 599 472 610 451 611 l 368 528 b 289 551 346 543 318 551 z m 289 489 b 376 401 346 489 376 458 b 289 317 376 344 346 317 b 204 401 232 317 204 347 b 289 489 204 457 232 489 z "},"≈":{"ha":574,"x_min":0,"x_max":0,"o":"m 347 564 b 354 565 350 564 353 565 l 360 568 l 471 632 b 486 678 489 642 494 661 b 439 689 476 693 457 699 l 343 633 l 249 688 b 225 693 242 692 233 694 b 208 688 219 693 214 690 l 100 625 b 89 579 83 615 79 596 b 132 568 97 564 115 561 l 229 624 l 326 568 l 331 565 b 347 564 336 564 342 564 z m 347 288 b 354 289 350 288 353 289 l 360 292 l 471 356 b 486 401 489 365 494 385 b 439 413 476 417 457 422 l 343 357 l 249 411 b 225 417 242 415 233 418 b 208 411 219 417 214 414 l 100 349 b 89 303 83 339 79 319 b 132 292 97 288 115 285 l 229 347 l 326 292 l 331 289 b 347 288 336 288 342 288 z "},"~":{"ha":574,"x_min":0,"x_max":0,"o":"m 347 424 b 354 425 350 424 353 425 l 360 428 l 471 492 b 486 538 489 501 494 521 b 439 549 476 553 457 558 l 343 493 l 249 547 b 225 553 242 551 233 554 b 208 547 219 553 214 550 l 100 485 b 89 439 83 475 79 456 b 132 428 97 424 115 421 l 229 483 l 326 428 l 331 425 b 347 424 336 424 342 424 z "},"„":{"ha":614,"x_min":0,"x_max":0,"o":"m 89 -56 b 132 -67 97 -71 115 -74 l 243 -3 b 258 43 261 7 267 26 b 211 54 249 58 229 64 l 100 -10 b 89 -56 83 -19 79 -39 z m 357 -56 b 400 -67 365 -71 383 -74 l 511 -3 b 526 43 529 7 535 26 b 479 54 517 58 497 64 l 368 -10 b 357 -56 351 -19 347 -39 z "},"‚":{"ha":346,"x_min":0,"x_max":0,"o":"m 89 -56 b 132 -67 97 -71 115 -74 l 243 -3 b 258 43 261 7 267 26 b 211 54 249 58 229 64 l 100 -10 b 89 -56 83 -19 79 -39 z "},"“":{"ha":614,"x_min":0,"x_max":0,"o":"m 89 928 b 132 917 97 913 115 910 l 243 981 b 258 1026 261 990 267 1010 b 211 1038 249 1042 229 1047 l 100 974 b 89 928 83 964 79 944 z m 357 928 b 400 917 365 913 383 910 l 511 981 b 526 1026 529 990 535 1010 b 479 1038 517 1042 497 1047 l 368 974 b 357 928 351 964 347 944 z "},"”":{"ha":614,"x_min":0,"x_max":0,"o":"m 525 928 b 514 974 535 944 531 964 l 403 1038 b 356 1026 385 1047 365 1042 b 371 981 347 1010 353 990 l 482 917 b 525 928 499 910 517 913 z m 257 928 b 246 974 267 944 263 964 l 135 1038 b 88 1026 117 1047 97 1042 b 103 981 79 1010 85 990 l 214 917 b 257 928 231 910 249 913 z "},"’":{"ha":346,"x_min":0,"x_max":0,"o":"m 257 928 b 246 974 267 944 263 964 l 135 1038 b 88 1026 117 1047 97 1042 b 103 981 79 1010 85 990 l 214 917 b 257 928 231 910 249 913 z "},"‘":{"ha":346,"x_min":0,"x_max":0,"o":"m 89 928 b 132 917 97 913 115 910 l 243 981 b 258 1026 261 990 267 1010 b 211 1038 249 1042 229 1047 l 100 974 b 89 928 83 964 79 944 z "},"B":{"ha":982,"x_min":0,"x_max":0,"o":"m 754 521 b 819 571 778 533 800 551 b 899 764 871 622 899 692 b 622 1040 899 917 775 1040 l 117 1040 b 83 1008 99 1040 83 1026 b 117 975 83 990 99 975 l 622 975 b 833 764 739 975 833 881 b 622 554 833 644 729 554 l 117 554 b 83 521 99 554 83 539 b 117 489 83 503 99 489 l 622 489 b 833 278 736 482 833 394 b 622 67 833 157 731 67 l 117 67 b 83 33 99 67 83 51 b 117 1 83 17 99 1 l 622 1 b 899 278 775 1 899 125 b 819 471 899 350 871 419 b 754 521 800 492 778 508 z "}}}
